<?xml version="1.0" encoding="UTF-8"?>
<svg width="46px" height="46px" viewBox="0 0 46 46" version="1.1" xmlns="http://www.w3.org/2000/svg" xmlns:xlink="http://www.w3.org/1999/xlink">
    <!-- Generator: Sketch 51.3 (57544) - http://www.bohemiancoding.com/sketch -->
    <title>Group 10</title>
    <desc>Created with Sketch.</desc>
    <defs></defs>
    <g id="Главная" stroke="none" stroke-width="1" fill="none" fill-rule="evenodd">
        <g id="Главная_v1" transform="translate(-1208.000000, -688.000000)">
            <g id="Group-5" transform="translate(1209.000000, 689.000000)">
                <g id="Group-10">
                    <path d="M15.076,12.448 L15.076,7.6 L16.396,7.6 L16.396,12.496 C16.396,14.068 17.26,14.92 18.592,14.92 C19.924,14.92 20.8,14.068 20.8,12.496 L20.8,7.6 L22.12,7.6 L22.12,12.448 C22.12,13.624 21.796,14.536 21.136,15.184 C20.476,15.832 19.636,16.156 18.592,16.156 C17.548,16.156 16.708,15.832 16.048,15.196 C15.4,14.548 15.076,13.636 15.076,12.448 Z M23.584,10.108 L25.084,10.108 L26.476,11.932 L27.88,10.108 L29.356,10.108 L27.22,12.892 L29.596,16 L28.096,16 L26.452,13.852 L24.808,16 L23.344,16 L25.72,12.916 L23.584,10.108 Z M6.946,29.448 L6.946,24.6 L8.266,24.6 L8.266,29.496 C8.266,31.068 9.13,31.92 10.462,31.92 C11.794,31.92 12.67,31.068 12.67,29.496 L12.67,24.6 L13.99,24.6 L13.99,29.448 C13.99,30.624 13.666,31.536 13.006,32.184 C12.346,32.832 11.506,33.156 10.462,33.156 C9.418,33.156 8.578,32.832 7.918,32.196 C7.27,31.548 6.946,30.636 6.946,29.448 Z M17.902,33.156 C16.906,33.156 16.066,32.94 15.394,32.52 L15.394,31.236 C16.078,31.728 16.894,31.98 17.83,31.98 C18.394,31.98 18.862,31.824 19.258,31.524 C19.654,31.212 19.858,30.792 19.858,30.276 C19.858,29.316 19.102,28.644 17.914,28.644 C17.542,28.644 17.182,28.704 16.846,28.836 L16.846,27.936 L19.102,25.752 L15.706,25.752 L15.706,24.6 L20.854,24.6 L20.854,25.596 L18.706,27.66 C19.39,27.732 19.966,28.008 20.458,28.476 C20.95,28.944 21.19,29.544 21.19,30.276 C21.19,31.14 20.878,31.836 20.242,32.364 C19.618,32.892 18.838,33.156 17.902,33.156 Z M26.038,33.156 C24.97,33.156 24.118,32.736 23.47,31.896 C22.834,31.044 22.51,30.012 22.51,28.8 C22.51,27.588 22.834,26.568 23.47,25.716 C24.118,24.864 24.97,24.444 26.038,24.444 C27.106,24.444 27.97,24.864 28.606,25.716 C29.254,26.568 29.578,27.588 29.578,28.8 C29.578,30.012 29.254,31.044 28.606,31.896 C27.97,32.736 27.106,33.156 26.038,33.156 Z M26.038,31.92 C26.698,31.92 27.238,31.62 27.646,31.02 C28.054,30.42 28.258,29.676 28.258,28.8 C28.258,27.924 28.054,27.18 27.646,26.58 C27.238,25.98 26.698,25.68 26.038,25.68 C25.378,25.68 24.85,25.98 24.442,26.592 C24.034,27.192 23.83,27.924 23.83,28.8 C23.83,29.676 24.034,30.408 24.442,31.02 C24.85,31.62 25.378,31.92 26.038,31.92 Z M35.746,28.536 C36.754,28.872 37.414,29.652 37.414,30.66 C37.414,31.428 37.102,32.04 36.466,32.484 C35.842,32.928 35.062,33.156 34.138,33.156 C33.214,33.156 32.434,32.928 31.798,32.484 C31.162,32.04 30.85,31.428 30.85,30.66 C30.85,29.652 31.522,28.872 32.53,28.536 C31.75,28.2 31.258,27.54 31.258,26.712 C31.258,26.04 31.534,25.5 32.074,25.08 C32.614,24.66 33.31,24.444 34.138,24.444 C34.966,24.444 35.65,24.66 36.19,25.08 C36.73,25.5 37.006,26.04 37.006,26.712 C37.006,27.54 36.514,28.2 35.746,28.536 Z M34.138,28.104 C35.05,28.104 35.746,27.576 35.746,26.82 C35.746,26.064 35.05,25.536 34.138,25.536 C33.214,25.536 32.518,26.064 32.518,26.82 C32.518,27.576 33.214,28.104 34.138,28.104 Z M36.058,30.576 C36.058,30.156 35.878,29.808 35.506,29.532 C35.146,29.256 34.69,29.124 34.138,29.124 C33.586,29.124 33.13,29.256 32.758,29.532 C32.386,29.808 32.206,30.156 32.206,30.576 C32.206,30.996 32.386,31.344 32.758,31.62 C33.13,31.896 33.598,32.04 34.138,32.04 C34.678,32.04 35.134,31.896 35.506,31.62 C35.878,31.344 36.058,30.996 36.058,30.576 Z" id="Ux-U308" fill="#FFFFFF"></path>
                    <path d="M0,22 C0,9.85 9.85,0 22,0 C34.15,0 44,9.85 44,22 C44,34.15 34.15,44 22,44 C9.85,44 0,34.15 0,22 Z" id="Stroke-6" stroke="#FFFFFF"></path>
                </g>
            </g>
        </g>
    </g>
</svg>