<?xml version="1.0" encoding="UTF-8"?>
<svg width="18px" height="25px" viewBox="0 0 18 25" version="1.1" xmlns="http://www.w3.org/2000/svg" xmlns:xlink="http://www.w3.org/1999/xlink">
    <!-- Generator: Sketch 51.3 (57544) - http://www.bohemiancoding.com/sketch -->
    <title>noun_Location_1214496</title>
    <desc>Created with Sketch.</desc>
    <defs></defs>
    <g id="Компания" stroke="none" stroke-width="1" fill="none" fill-rule="evenodd">
        <g id="Контакты" transform="translate(-511.000000, -306.000000)" fill="#439BDE" fill-rule="nonzero">
            <g id="noun_Location_1214496" transform="translate(511.000000, 306.000000)">
                <path d="M16.3806319,3.83192389 C14.6653829,1.37420719 11.9737614,0 8.99186693,0 C5.98358404,0 3.26557407,1.42706131 1.5767135,3.91120507 C-0.112147068,6.39534884 -0.455196871,9.48731501 0.600340984,12.2093023 C0.732283216,12.5528541 0.917002341,12.8964059 1.12810991,13.2399577 L8.01549442,24.4450317 C8.22660199,24.7885835 8.59604024,25 8.99186693,25 C9.38769363,25 9.75713188,24.7885835 9.96823945,24.4450317 L16.8820124,13.1606765 C17.1195084,12.7906977 17.2778391,12.4207188 17.4361698,12.077167 C18.4653192,9.3551797 18.0694925,6.26321353 16.3806319,3.83192389 Z M8.99186693,12.2885835 C6.77523744,12.2885835 4.98082308,10.4915433 4.98082308,8.27167019 C4.98082308,6.05179704 6.77523744,4.25475687 8.99186693,4.25475687 C11.2084964,4.25475687 13.0029108,6.05179704 13.0029108,8.27167019 C13.0029108,10.4915433 11.2084964,12.2885835 8.99186693,12.2885835 Z" id="Shape"></path>
            </g>
        </g>
    </g>
</svg>