<?xml version="1.0" encoding="UTF-8"?>
<svg width="22px" height="17px" viewBox="0 0 22 17" version="1.1" xmlns="http://www.w3.org/2000/svg" xmlns:xlink="http://www.w3.org/1999/xlink">
    <!-- Generator: Sketch 51.3 (57544) - http://www.bohemiancoding.com/sketch -->
    <title>Group</title>
    <desc>Created with Sketch.</desc>
    <defs></defs>
    <g id="Компания" stroke="none" stroke-width="1" fill="none" fill-rule="evenodd">
        <g id="Контакты" transform="translate(-511.000000, -451.000000)" fill="#439BDE" fill-rule="nonzero">
            <g id="Group" transform="translate(511.000000, 451.000000)">
                <path d="M0.0935476414,2.26231059 C0.638137194,0.846099945 1.94204617,-0.0550139015 3.36225226,0.00335306844 C5.90009425,0.00335306844 8.43793625,0.00335306844 10.9847459,0.00335306844 C13.5315555,0.00335306844 16.0783651,0.00335306844 18.6072395,0.00335306844 C20.0066488,-0.0606440159 21.3025577,0.796153377 21.8849118,2.17040439 C22.0005832,2.34355815 22.0311987,2.56648948 21.9670334,2.76838636 C21.9028682,2.97028324 21.7518979,3.12605033 21.5620767,3.1862097 L11.455547,8.87955659 C11.1958767,9.0401478 10.8767429,9.0401478 10.6170727,8.87955659 L0.376028287,3.13783802 C0.213988561,3.08381304 0.0854076788,2.94989962 0.0296557049,2.77710059 C-0.026096269,2.60430156 -0.00237822086,2.41320054 0.0935476414,2.26231059 Z" id="Path"></path>
                <path d="M0.945538608,5.130366 C4.06801494,6.87098274 7.18755938,8.6053495 10.3041719,10.3334663 C10.731282,10.6031698 11.2623859,10.6031698 11.6894959,10.3334663 C14.7914489,8.59909953 17.8977998,6.88035769 21.0085485,5.17724078 C21.0994618,5.12339186 21.1972371,5.08391671 21.2988069,5.06005384 C21.4670915,4.99863784 21.6531226,5.03253191 21.7927118,5.15004119 C21.9323009,5.26755048 22.0063353,5.45258529 21.98927,5.64130108 C21.98927,7.85066558 21.98927,10.0584676 21.98927,12.2647071 C22.0144367,12.8372825 21.9953147,13.4110946 21.9320979,13.980324 C21.6737877,15.738051 20.2411883,17.0251611 18.5721374,16.9990596 C16.5315332,16.9990596 14.4909289,16.9990596 12.4547225,16.9990596 L3.48749822,16.9990596 C1.91745475,17.0370168 0.527882796,15.9223272 0.127537766,14.3037599 C0.0472571574,13.9984346 0.00438851016,13.6833188 0,13.3662644 C0,10.8162765 0,8.26628861 0,5.71161324 C1.5624316e-15,5.06942879 0.387011151,4.82567995 0.945538608,5.130366 Z" id="Path"></path>
            </g>
        </g>
    </g>
</svg>