<?xml version="1.0" encoding="UTF-8"?>
<svg width="45px" height="45px" viewBox="0 0 45 45" version="1.1" xmlns="http://www.w3.org/2000/svg" xmlns:xlink="http://www.w3.org/1999/xlink">
    <!-- Generator: Sketch 51.3 (57544) - http://www.bohemiancoding.com/sketch -->
    <title>Group 7</title>
    <desc>Created with Sketch.</desc>
    <defs></defs>
    <g id="Главная" stroke="none" stroke-width="1" fill="none" fill-rule="evenodd">
        <g id="Главная_v1" transform="translate(-763.000000, -689.000000)" stroke="#FFFFFF">
            <g id="Group-3" transform="translate(763.000000, 689.000000)">
                <g id="Group-6">
                    <g id="Group-7">
                        <path d="M17,20 L28,20" id="Stroke-1"></path>
                        <path d="M17,24 L28,24" id="Stroke-2"></path>
                        <path d="M17,28 L23.5,28" id="Stroke-3"></path>
                        <path d="M25.854,11 L15.5,11 C14.396,11 13.5,11.896 13.5,13 L13.5,32 C13.5,33.104 14.396,34 15.5,34 L29.5,34 C30.604,34 31.5,33.104 31.5,32 L31.5,16.071 L25.854,11 Z" id="Stroke-4"></path>
                        <path d="M0.5,22.5 C0.5,10.35 10.35,0.5 22.5,0.5 C34.65,0.5 44.5,10.35 44.5,22.5 C44.5,34.65 34.65,44.5 22.5,44.5 C10.35,44.5 0.5,34.65 0.5,22.5 Z" id="Stroke-6"></path>
                    </g>
                </g>
            </g>
        </g>
    </g>
</svg>