<?xml version="1.0" encoding="UTF-8"?>
<svg width="45px" height="45px" viewBox="0 0 45 45" version="1.1" xmlns="http://www.w3.org/2000/svg" xmlns:xlink="http://www.w3.org/1999/xlink">
    <!-- Generator: Sketch 51.3 (57544) - http://www.bohemiancoding.com/sketch -->
    <title>Group 9</title>
    <desc>Created with Sketch.</desc>
    <defs></defs>
    <g id="Главная" stroke="none" stroke-width="1" fill="none" fill-rule="evenodd">
        <g id="Главная_v1" transform="translate(-539.000000, -689.000000)">
            <g id="Group-2" transform="translate(538.000000, 689.000000)">
                <g id="Group-9" transform="translate(1.000000, 0.000000)">
                    <path d="M0.5,22.5 C0.5,10.35 10.35,0.5 22.5,0.5 C34.65,0.5 44.5,10.35 44.5,22.5 C44.5,34.65 34.65,44.5 22.5,44.5 C10.35,44.5 0.5,34.65 0.5,22.5 Z" id="Stroke-6" fill="#439BDE"></path>
                    <path d="M17,20 L28,20" id="Stroke-1" stroke="#FFFFFF"></path>
                    <path d="M17,24 L28,24" id="Stroke-2" stroke="#FFFFFF"></path>
                    <path d="M17,28 L23.5,28" id="Stroke-3" stroke="#FFFFFF"></path>
                    <g id="Group-8" transform="translate(13.000000, 11.000000)" stroke="#FFFFFF">
                        <path d="M12.854,0 L2.5,0 C1.396,0 0.5,0.896 0.5,2 L0.5,21 C0.5,22.104 1.396,23 2.5,23 L16.5,23 C17.604,23 18.5,22.104 18.5,21 L18.5,5.071 L12.854,0 Z" id="Stroke-4"></path>
                    </g>
                </g>
            </g>
        </g>
    </g>
</svg>