<?xml version="1.0" encoding="UTF-8"?>
<svg width="20px" height="20px" viewBox="0 0 20 20" version="1.1" xmlns="http://www.w3.org/2000/svg" xmlns:xlink="http://www.w3.org/1999/xlink">
    <!-- Generator: Sketch 51.3 (57544) - http://www.bohemiancoding.com/sketch -->
    <title>noun_Telephone_445256</title>
    <desc>Created with Sketch.</desc>
    <defs></defs>
    <g id="Компания" stroke="none" stroke-width="1" fill="none" fill-rule="evenodd">
        <g id="Контакты" transform="translate(-511.000000, -377.000000)" fill="#439BDE" fill-rule="nonzero">
            <g id="noun_Telephone_445256" transform="translate(511.000000, 377.000000)">
                <path d="M18.0912488,13.4060201 C16.7614682,12.3109139 15.7532439,12.329136 14.4474633,13.2922428 C14.2123517,13.4653531 13.5087947,14.1122391 13.5087947,14.1122391 C13.2387941,14.3604602 12.7263486,14.4935707 12.3699034,14.4080156 C12.3699034,14.4080156 11.1279008,14.1084614 8.49500632,11.5142508 C5.89166748,8.87470716 5.59166685,7.62982388 5.59166685,7.62982388 C5.50611111,7.27338104 5.6392225,6.7609389 5.88744525,6.49094012 C5.88744525,6.49094012 6.53477995,5.78738773 6.7076692,5.5524999 C7.67078235,4.24650579 7.68900461,3.23828811 6.59389119,1.90873854 C5.13366588,0.135413202 3.52277358,-1.077248 1.03587944,1.40962968 C0.0892107715,2.35629208 -0.213456535,3.81472996 0.147877562,5.11739075 C0.147877562,5.11739075 0.870990202,9.59714835 5.63700027,14.3629046 C10.4025659,19.1288832 14.8823531,19.851991 14.8823531,19.851991 C16.1850226,20.213545 17.6436923,19.9108797 18.590361,18.963995 C21.0772551,16.4766729 19.8645859,14.8660135 18.0912488,13.4060201 Z" id="Shape"></path>
            </g>
        </g>
    </g>
</svg>