<?xml version="1.0" encoding="UTF-8"?>
<svg width="46px" height="46px" viewBox="0 0 46 46" version="1.1" xmlns="http://www.w3.org/2000/svg" xmlns:xlink="http://www.w3.org/1999/xlink">
    <!-- Generator: Sketch 51.3 (57544) - http://www.bohemiancoding.com/sketch -->
    <title>Group 7</title>
    <desc>Created with Sketch.</desc>
    <defs></defs>
    <g id="Главная" stroke="none" stroke-width="1" fill="none" fill-rule="evenodd">
        <g id="Главная_v1" transform="translate(-985.000000, -688.000000)">
            <g id="Group-4" transform="translate(986.000000, 689.000000)">
                <g id="Group-7">
                    <path d="M0,22 C0,9.85 9.85,0 22,0 C34.15,0 44,9.85 44,22 C44,34.15 34.15,44 22,44 C9.85,44 0,34.15 0,22 Z" id="Stroke-6" stroke="#FFFFFF"></path>
                    <path d="M14.6371041,11.22 C13.8791041,11.22 13.2201041,11.814 12.5601041,12.473 C12.3951041,12.638 12.1981041,12.868 12.0661041,13.033 L12.0331041,13.067 L11.7691041,13.33 C11.0771041,14.023 11.1431041,15.835 11.9011041,17.946 C12.9231041,20.517 14.8351041,23.285 17.3071041,25.758 C21.7581041,30.208 25.9451041,31.791 28.1531041,31.791 C29.1751041,31.791 29.5371041,31.461 29.7021041,31.198 C29.7681041,31.132 29.8021041,31.066 29.9001041,31.032 C29.9991041,30.967 30.0981041,30.867 30.2301041,30.736 L30.2631041,30.703 C31.1531041,29.912 31.9441041,29.12 31.9111041,28.231 C31.8121041,27.605 31.3511041,26.912 30.4931041,26.154 C29.1091041,25.033 28.2191041,24.835 27.8241041,24.835 C27.0981041,24.835 26.6041041,25.297 25.8451041,26.055 L25.6151041,26.285 C25.3841041,26.517 25.0871041,26.616 24.7911041,26.616 C24.0981041,26.616 22.8451041,26.253 19.8131041,23.22 C16.7801041,20.187 15.7581041,18.341 16.6811041,17.45 L16.9121041,17.22 C18.1981041,15.935 18.9231041,15.209 16.8131041,12.572 C16.0221041,11.682 15.3291041,11.22 14.6371041,11.22 M28.1531041,33.043 C25.5821041,33.043 21.1641041,31.363 16.4171041,26.649 C13.8131041,24.044 11.8021041,21.143 10.7141041,18.407 C9.72510412,15.703 9.75810412,13.528 10.8461041,12.473 L11.0771041,12.242 C11.2411041,12.044 11.4401041,11.814 11.6371041,11.616 C12.4611041,10.792 13.3511041,10 14.6041041,10 C15.6921041,10 16.7141041,10.594 17.7361041,11.847 C20.3731041,15.111 19.3841041,16.528 17.7691041,18.176 L17.6041041,18.341 C17.6041041,18.538 17.8351041,19.528 20.7031041,22.396 C23.4061041,25.099 24.4611041,25.396 24.7581041,25.429 L24.9551041,25.231 C25.7461041,24.44 26.5381041,23.649 27.8241041,23.649 C28.8121041,23.649 30.0321041,24.209 31.3181041,25.264 C32.4711041,26.253 33.0321041,27.176 33.1641041,28.164 L33.1641041,28.198 C33.2301041,29.78 31.9771041,30.901 31.1201041,31.659 C30.9881041,31.791 30.8561041,31.923 30.6911041,32.055 C30.1311041,32.714 29.3071041,33.043 28.1531041,33.043" id="Fill-5" fill="#FFFFFF"></path>
                </g>
            </g>
        </g>
    </g>
</svg>