<?xml version="1.0" encoding="UTF-8"?>
<svg width="30px" height="30px" viewBox="0 0 30 30" version="1.1" xmlns="http://www.w3.org/2000/svg" xmlns:xlink="http://www.w3.org/1999/xlink">
    <!-- Generator: Sketch 51.2 (57519) - http://www.bohemiancoding.com/sketch -->
    <title>Group 2</title>
    <desc>Created with Sketch.</desc>
    <defs></defs>
    <g id="Symbols" stroke="none" stroke-width="1" fill="none" fill-rule="evenodd">
        <g id="footer" transform="translate(-1346.000000, -22.000000)" fill-rule="nonzero">
            <g id="Group-2" transform="translate(1347.000000, 23.000000)">
                <circle id="Oval" stroke="#005392" cx="14" cy="14" r="14"></circle>
                <g id="instagram" transform="translate(7.000000, 6.000000)" fill="#005392">
                    <g id="Group" transform="translate(0.960938, 0.960938)">
                        <g id="Group-5">
                            <path d="M9.28779687,0.0210772059 L3.95296691,0.0210772059 C1.78489706,0.0210772059 0.0210772059,1.78489706 0.0210772059,3.95296691 L0.0210772059,9.28779688 C0.0210772059,11.4557767 1.78489706,13.2197316 3.95301195,13.2197316 L9.28784191,13.2197316 C11.4558217,13.2197316 13.2197767,11.4558667 13.2197767,9.28779688 L13.2197767,3.95296691 C13.2197316,1.78489706 11.4558667,0.0210772059 9.28779687,0.0210772059 Z M11.8919577,9.28784191 C11.8919577,10.726046 10.726046,11.8919577 9.28784191,11.8919577 L3.95301195,11.8919577 C2.5148079,11.8919577 1.34889614,10.726046 1.34889614,9.28784191 L1.34889614,3.95301195 C1.34889614,2.5148079 2.5148079,1.3488511 3.95301195,1.3488511 L9.28784191,1.3488511 C10.726046,1.3488511 11.8919577,2.51485294 11.8919577,3.95301195 L11.8919577,9.28784191 Z" id="Shape"></path>
                            <path d="M6.62040441,3.20670772 C4.73813787,3.20670772 3.20670772,4.73813787 3.20670772,6.62040441 C3.20670772,8.50253585 4.73813787,10.033966 6.62040441,10.033966 C8.50267096,10.033966 10.033966,8.50267096 10.033966,6.62040441 C10.033966,4.73813787 8.50267096,3.20670772 6.62040441,3.20670772 Z M6.62040441,8.7061921 C5.46840901,8.7061921 4.53448162,7.77244485 4.53448162,6.62040441 C4.53448162,5.46836397 5.46840901,4.53448162 6.62040441,4.53448162 C7.77239982,4.53448162 8.7061921,5.46831893 8.7061921,6.62040441 C8.7061921,7.77239982 7.77239982,8.7061921 6.62040441,8.7061921 Z" id="Shape"></path>
                            <path d="M10.8584991,3.23246875 C10.8584991,3.6841875 10.4922601,4.05047151 10.0404963,4.05047151 C9.58877757,4.05047151 9.22249357,3.6841875 9.22249357,3.23246875 C9.22249357,2.78070496 9.58877757,2.41446599 10.0404963,2.41446599 C10.4923502,2.41446599 10.8584991,2.78061489 10.8584991,3.23246875 Z" id="Shape"></path>
                        </g>
                    </g>
                </g>
            </g>
        </g>
    </g>
</svg>