<?xml version="1.0" encoding="utf-8"?>
<!-- Generator: Adobe Illustrator 21.0.0, SVG Export Plug-In . SVG Version: 6.00 Build 0)  -->
<svg version="1.1" id="_x31_" xmlns="http://www.w3.org/2000/svg" xmlns:xlink="http://www.w3.org/1999/xlink" x="0px" y="0px"
	 viewBox="0 0 200 169.7" style="enable-background:new 0 0 200 169.7;" xml:space="preserve">
<style type="text/css">
	.st0{fill-rule:evenodd;clip-rule:evenodd;fill:url(#SVGID_1_);}
	.st1{fill:#6D6E70;}
</style>
<g>
	<radialGradient id="SVGID_1_" cx="86.7371" cy="34.1218" r="83.1344" gradientUnits="userSpaceOnUse">
		<stop  offset="0" style="stop-color:#85C0EC"/>
		<stop  offset="0.5" style="stop-color:#127CC2"/>
		<stop  offset="1" style="stop-color:#1C3471"/>
	</radialGradient>
	<path class="st0" d="M138.4,16.3c20,20,20,52.6,0,72.6c-1.3,1.3-2.6,2.5-3.9,3.6V72.1c0-3.2-2-7.5-5.2-9.5l-11.2-7l-13.3,8.3
		l12.8,7.8c3.3,2,3.2,3.9,3.2,7.1v21.6c-11.9,4.6-25.3,4.6-37.2,0V78.8c0-3.2-0.3-4.8,3-6.8l13.1-8.1l-13.3-8.3l-11.2,7
		c-3.3,2-5.2,6.3-5.2,9.5v20.3c-1.4-1.1-2.7-2.3-3.9-3.6c-20-20-20-52.6,0-72.6c1.3-1.3,2.6-2.5,3.9-3.6V36c0,3.2,1.9,7.5,5.2,9.5
		c8.3,5.1,16.6,10.3,24.9,15.4c1.3,0.8,3.5,0.7,4.9-0.2l24.4-15.2c3.3-2.1,5.2-6.3,5.2-9.5V12.7C135.9,13.8,137.2,15,138.4,16.3
		L138.4,16.3L138.4,16.3z M83.5,4.7v24.6c0,3.2-0.3,4.8,3,6.8l15.7,9.7h0c5.1-3.1,10.2-6.3,15.3-9.4c3.3-2,3.2-3.9,3.2-7.1V4.7
		C108.8,0.1,95.5,0.1,83.5,4.7z"/>
	<path class="st1" d="M38.2,160c-1-1.5-2-3.1-3.1-4.8c-1.1-1.7-2.3-3.4-3.6-5.2c-1.2-1.8-2.5-3.6-3.8-5.4c1.3-1.8,2.6-3.6,3.8-5.4
		c1.3-1.8,2.4-3.5,3.6-5.1c1.1-1.6,2.1-3.1,3.1-4.5h-8.2c-0.8,1.3-1.7,2.7-2.8,4.3c-1,1.6-2.2,3.3-3.5,5c-1.2-1.8-2.5-3.4-3.7-5
		c-1.2-1.6-2.3-3-3.3-4.3H7.8c1.1,1.3,2.3,2.7,3.6,4.4c1.3,1.6,2.6,3.4,4,5.2c1.4,1.8,2.8,3.7,4.2,5.6c-1.4,1.9-2.8,3.8-4.2,5.6
		c-1.4,1.8-2.7,3.6-4,5.2c-1.3,1.6-2.5,3.1-3.6,4.3h8.2c1.1-1.4,2.3-2.8,3.6-4.5c1.3-1.6,2.6-3.3,3.9-5.2c1.2,1.7,2.4,3.4,3.5,5.1
		c1.1,1.6,2.1,3.1,2.9,4.6H38.2L38.2,160z M62.5,160h7.4v-30.4h-7.4c-0.9,1.6-1.9,3.3-2.9,5c-1,1.7-2.1,3.4-3.1,5.1
		c-1.1,1.7-2.1,3.3-3.2,4.9c-1.1,1.6-2.1,3-3.2,4.3v-19.4h-7.4V160h7.4c1.4-1.8,2.9-3.8,4.3-5.8c1.4-2,2.8-4.1,4.2-6.3
		c1.4-2.1,2.7-4.3,3.9-6.5V160L62.5,160z M101.3,140.6c0-2.3-0.3-4.2-0.8-5.7c-0.5-1.5-1.3-2.7-2.4-3.6c-1.1-0.9-2.4-1.6-4.1-1.9
		c-1.6-0.4-3.6-0.6-5.9-0.6c-1.5,0-2.9,0.1-4.4,0.2c-1.5,0.1-2.8,0.4-4.2,0.6c-1.3,0.2-2.5,0.5-3.6,0.8l1.4,6.1
		c0.8-0.3,1.8-0.6,2.8-0.8c1-0.2,2-0.4,3.1-0.5c1.1-0.1,2.2-0.2,3.3-0.2c1.6,0,2.9,0.1,3.9,0.3c1,0.2,1.8,0.5,2.3,1
		c0.5,0.5,0.9,1.1,1.1,2c0.2,0.8,0.3,1.9,0.3,3.3c-1.3-0.3-2.5-0.5-3.8-0.6c-1.2-0.1-2.5-0.2-3.8-0.2c-1.8,0-3.4,0.1-4.9,0.3
		c-1.5,0.2-2.7,0.7-3.8,1.4c-1.1,0.7-1.9,1.7-2.4,3c-0.6,1.3-0.9,3.1-0.9,5.2c0,2,0.2,3.6,0.7,4.9c0.4,1.3,1.2,2.4,2.2,3.1
		c1,0.8,2.3,1.3,4,1.6c1.6,0.3,3.7,0.5,6.1,0.5c1.1,0,2.2-0.1,3.4-0.2c1.2-0.1,2.4-0.3,3.6-0.5c1.2-0.2,2.4-0.5,3.5-0.7
		c1.1-0.3,2.2-0.6,3.2-1V140.6L101.3,140.6z M94.2,154.2c-0.9,0.3-1.8,0.5-2.9,0.7c-1.1,0.2-2.1,0.3-3.2,0.3c-1.1,0-2-0.1-2.8-0.2
		c-0.7-0.1-1.3-0.3-1.7-0.7c-0.4-0.3-0.7-0.8-0.9-1.4c-0.2-0.6-0.3-1.5-0.2-2.5c0-1,0.1-1.7,0.3-2.3c0.2-0.6,0.5-1,1-1.3
		c0.4-0.3,1-0.5,1.8-0.6c0.7-0.1,1.6-0.1,2.6-0.1c1.1,0,2.2,0,3.2,0.1c1,0.1,2,0.2,2.8,0.4V154.2L94.2,154.2z M114.6,136.1h13.7
		v-6.5h-21.2V160h7.4V136.1L114.6,136.1z M135.3,129.6H158v24h5.9l-1.7,14.9h-5.9V160h-22.9v8.4h-6l-1.7-14.9h5.4
		c1.1-3.8,2-7.7,2.7-11.7C134.6,137.8,135.1,133.7,135.3,129.6L135.3,129.6z M150.6,136.1h-8.5c-0.1,1.7-0.4,3.6-0.7,5.5
		c-0.3,2-0.7,3.9-1.1,6c-0.4,2-0.9,4-1.4,6h11.8V136.1L150.6,136.1z M192.3,140.6c0-2.3-0.3-4.2-0.8-5.7c-0.5-1.5-1.3-2.7-2.4-3.6
		c-1.1-0.9-2.5-1.6-4.1-1.9c-1.6-0.4-3.6-0.6-5.9-0.6c-1.5,0-2.9,0.1-4.4,0.2c-1.5,0.1-2.8,0.4-4.2,0.6c-1.3,0.2-2.5,0.5-3.6,0.8
		l1.4,6.1c0.8-0.3,1.8-0.6,2.8-0.8c1-0.2,2-0.4,3.1-0.5c1.1-0.1,2.2-0.2,3.3-0.2c1.6,0,2.9,0.1,3.9,0.3c1,0.2,1.8,0.5,2.3,1
		c0.5,0.5,0.9,1.1,1.1,2c0.2,0.8,0.3,1.9,0.3,3.3c-1.3-0.3-2.5-0.5-3.8-0.6c-1.2-0.1-2.5-0.2-3.8-0.2c-1.8,0-3.4,0.1-4.9,0.3
		c-1.5,0.2-2.7,0.7-3.8,1.4c-1.1,0.7-1.9,1.7-2.4,3c-0.6,1.3-0.9,3.1-0.9,5.2c0,2,0.2,3.6,0.7,4.9c0.4,1.3,1.2,2.4,2.2,3.1
		c1,0.8,2.3,1.3,4,1.6c1.6,0.3,3.7,0.5,6.1,0.5c1.1,0,2.2-0.1,3.4-0.2c1.2-0.1,2.4-0.3,3.6-0.5c1.2-0.2,2.4-0.5,3.5-0.7
		c1.1-0.3,2.2-0.6,3.2-1V140.6L192.3,140.6z M185.2,154.2c-0.9,0.3-1.8,0.5-2.9,0.7c-1.1,0.2-2.1,0.3-3.2,0.3c-1.1,0-2-0.1-2.8-0.2
		c-0.7-0.1-1.3-0.3-1.7-0.7c-0.4-0.3-0.7-0.8-0.9-1.4c-0.2-0.6-0.3-1.5-0.2-2.5c0-1,0.1-1.7,0.3-2.3c0.2-0.6,0.5-1,1-1.3
		c0.4-0.3,1-0.5,1.8-0.6c0.7-0.1,1.6-0.1,2.7-0.1c1.1,0,2.2,0,3.2,0.1c1,0.1,2,0.2,2.8,0.4V154.2z"/>
</g>
</svg>
