<?xml version="1.0" encoding="UTF-8"?>
<svg width="46px" height="62px" viewBox="0 0 46 62" version="1.1" xmlns="http://www.w3.org/2000/svg" xmlns:xlink="http://www.w3.org/1999/xlink">
    <!-- Generator: Sketch 51.2 (57519) - http://www.bohemiancoding.com/sketch -->
    <title>armz_logo</title>
    <desc>Created with Sketch.</desc>
    <defs>
        <linearGradient x1="31.4632421%" y1="18.0442028%" x2="63.6961929%" y2="73.5095122%" id="linearGradient-1">
            <stop stop-color="#233567" offset="0%"></stop>
            <stop stop-color="#18518C" offset="13.58%"></stop>
            <stop stop-color="#0F6BAE" offset="28.1%"></stop>
            <stop stop-color="#0B75BB" offset="36%"></stop>
            <stop stop-color="#137BBF" offset="41.25%"></stop>
            <stop stop-color="#2A8CCA" offset="49.48%"></stop>
            <stop stop-color="#4EA7DB" offset="59.61%"></stop>
            <stop stop-color="#74C3EE" offset="68.6%"></stop>
            <stop stop-color="#68BAE8" offset="70.58%"></stop>
            <stop stop-color="#3695D0" offset="79.95%"></stop>
            <stop stop-color="#177EC1" offset="87.05%"></stop>
            <stop stop-color="#0B75BB" offset="91%"></stop>
            <stop stop-color="#0665AA" offset="95.55%"></stop>
            <stop stop-color="#035A9E" offset="100%"></stop>
        </linearGradient>
    </defs>
    <g id="Symbols" stroke="none" stroke-width="1" fill="none" fill-rule="evenodd">
        <g id="header_white" transform="translate(-66.000000, -17.000000)">
            <g id="armz_logo" transform="translate(66.000000, 17.000000)">
                <path d="M34.3739967,12 L34.3739967,44.0439892 C34.3739967,50.4188034 29.0085998,54.911557 22.953115,54.911557 C16.6939738,54.911557 11.5307683,50.5498421 11.5307683,44.0439892 L11.5307683,25.9793757 L4.5830042,25.9793757 L4.5830042,44.1174285 C4.5830042,54.432042 12.976876,61.2820513 22.953115,61.2820513 C32.9293541,61.2820513 41.3261562,54.432042 41.3261562,44.1174285 L41.3261562,18.3661743 L46,18.3661743 L46,12 L34.3739967,12 Z M0,12 L0,18.3661743 L19.4719072,18.3661743 L19.4719072,43.8150316 C19.4719072,45.6855723 21.0542744,47.2738759 22.9120907,47.2738759 C24.6307173,47.2738759 26.4196713,45.9620494 26.4196713,43.8150316 C26.4196713,26.922566 26.4196713,16.0117986 26.4885336,12 L0,12 Z" id="Fill-1" fill="url(#linearGradient-1)"></path>
                <path d="M44.6020811,0.00669518929 C44.7735065,0.00669518929 44.9238551,0.180617948 44.8142552,0.350432294 L42.7234265,3.57827435 C43.5960103,3.67276782 44.3252711,4.28355168 44.7439989,5.00937106 C45.1318139,5.67630321 45.155701,6.90334882 44.911209,7.7688542 C44.6189426,8.79458763 43.7772716,9.22323191 42.7641752,9.39304625 C42.1782373,9.49027866 41.4588124,9.53273225 40.7253362,9.53821013 C39.8541576,9.54231854 38.9633072,9.49575654 38.252313,9.42180513 C38.0696465,9.40400202 37.8926005,9.38345996 37.7225802,9.36017896 C37.5483445,9.33689796 37.3797292,9.31087802 37.222355,9.28074967 C37.0944885,9.25062132 36.9933194,9.14106367 37.000345,9.00822503 L37.2462422,7.63738502 C37.2757499,7.47989591 37.4513907,7.40320556 37.6003341,7.43744233 C37.7745699,7.48948221 38.0232773,7.5223495 38.2073489,7.54973891 C38.329595,7.56480308 38.4504359,7.58123673 38.5726819,7.59356197 C38.7131946,7.60999561 38.8438714,7.62232085 38.9703328,7.63464608 C39.4368349,7.67436073 40.0452548,7.70859749 40.6410286,7.7127059 C41.1131512,7.71681431 41.576843,7.70175014 41.942176,7.65792708 C42.296268,7.61547349 42.6559804,7.53193579 42.7599598,7.15670086 C42.8442674,6.75955441 42.8765853,6.1788989 42.7585547,5.78312192 C42.5323293,5.26409258 42.1234374,5.26409258 41.6021353,5.23807264 C41.4447611,5.22985582 41.26631,5.22711688 41.0681871,5.22711688 L39.7684448,5.22711688 C39.5141169,5.22711688 39.481799,5.0216963 39.5717271,4.89433554 L41.5782482,1.72811965 L38.9984353,1.72811965 L38.9900046,2.29234152 C38.9871943,2.43202751 38.8747842,2.54569357 38.7370817,2.54706304 L37.5033804,2.55527986 C37.3628677,2.55527986 37.2462422,2.44024433 37.2462422,2.30466675 L37.2687242,0.258677768 C37.2687242,0.120361244 37.3867549,0.00669518929 37.5258624,0.00669518929 C39.8822601,-0.00836898662 42.241468,0.00669518929 44.6020811,0.00669518929" id="Fill-4" fill="#5B5B5A"></path>
                <path d="M28.2617321,5.65657784 L30.7982766,0.173174683 C30.8795487,0.077582258 31.0363896,0 31.1689914,0 L35.2325956,0 C35.3780299,0 35.4949476,0.114987989 35.4949476,0.256298531 L35.4949476,1.48930227 C35.4949476,1.63061281 35.3780299,1.7456008 35.2325956,1.7456008 L34.2772922,1.7456008 L34.2772922,7.79286073 L35.262538,7.79286073 C35.4079722,7.79286073 35.5263158,7.90784872 35.5263158,8.04915926 L35.5263158,9.28354841 C35.5263158,9.42347355 35.4079722,9.53846154 35.262538,9.53846154 L31.1675656,9.53846154 C31.024983,9.53846154 30.9052136,9.42347355 30.9052136,9.28354841 L30.9052136,8.04915926 C30.9052136,7.90784872 31.024983,7.79286073 31.1675656,7.79286073 L32.1656438,7.79286073 L32.1656438,1.94232724 L29.5848986,7.24978493 C29.5121815,7.37724149 29.3753022,7.46867773 29.2227388,7.46867773 L27.303577,7.46867773 C27.1510136,7.46867773 27.0112826,7.37724149 26.9414171,7.24978493 L24.360672,1.94232724 L24.360672,7.79286073 L25.3544728,7.79286073 C25.499907,7.79286073 25.6182506,7.90784872 25.6182506,8.04915926 L25.6182506,9.28354841 C25.6182506,9.42347355 25.499907,9.53846154 25.3544728,9.53846154 L21.262352,9.53846154 C21.1169177,9.53846154 21,9.42347355 21,9.28354841 L21,8.04915926 C21,7.90784872 21.1169177,7.79286073 21.262352,7.79286073 L22.2490236,7.79286073 L22.2490236,1.7456008 L21.2922943,1.7456008 C21.1497117,1.7456008 21.0313682,1.63061281 21.0313682,1.48930227 L21.0313682,0.256298531 C21.0313682,0.114987989 21.1497117,0 21.2922943,0 L25.3544728,0 C25.4899262,0 25.6453413,0.077582258 25.729465,0.173174683 L28.2617321,5.65657784" id="Fill-6" fill="#5B5B5A"></path>
                <path d="M14.8424219,1.7456008 C15.7368421,1.7456008 16.6298056,1.74144461 17.522769,1.74144461 C18.3414402,1.73451762 18.5803407,2.24850008 18.5803407,3.01601028 C18.5803407,3.9331434 18.1185636,4.3695436 17.4950915,4.3695436 L14.8424219,4.3695436 L14.8424219,1.7456008 Z M6.02495408,1.90630691 L4.66875673,5.06362773 L7.38260814,5.06362773 L6.02495408,1.90630691 Z M12.6311356,7.79424613 L12.6311356,1.7456008 L11.6070682,1.7456008 C11.4599405,1.7456008 11.3390335,1.63061281 11.3390335,1.49068767 L11.3390335,0.254913133 C11.3390335,0.114987989 11.4599405,0 11.6070682,0 L17.5766673,0 C19.5883843,0 20.9737159,0.978090609 20.9824561,3.04094743 C20.9824561,5.1869281 19.5709038,6.10267583 17.4819811,6.09713424 L14.8424219,6.09713424 L14.8424219,7.79424613 L15.8650326,7.79424613 C16.0136171,7.79424613 16.134524,7.90784872 16.134524,8.04777387 L16.134524,9.28354841 C16.134524,9.42347355 16.0136171,9.53846154 15.8650326,9.53846154 L7.56032681,9.53846154 C7.41319906,9.53846154 7.29083539,9.42347355 7.29083539,9.28354841 L7.29083539,8.04777387 C7.29083539,7.90784872 7.41319906,7.79424613 7.56032681,7.79424613 L8.42852619,7.79424613 L8.04249794,6.76489582 L4.00886693,6.76489582 L3.62283869,7.79424613 L4.49103806,7.79424613 C4.63816581,7.79424613 4.75907277,7.90784872 4.75907277,8.04777387 L4.75907277,9.28354841 C4.75907277,9.42347355 4.63816581,9.53846154 4.49103806,9.53846154 L0.268034708,9.53846154 C0.120906961,9.53846154 0,9.42347355 0,9.28354841 L0,8.04777387 C0,7.90784872 0.120906961,7.79424613 0.268034708,7.79424613 L1.29064539,7.79424613 L4.39926531,0.228590582 C4.45607702,0.0872800402 4.56824371,0 4.72702514,0 L7.32579644,0 C7.48312116,0 7.59528786,0.0872800402 7.65209956,0.228590582 L10.7607195,7.79424613 L12.6311356,7.79424613 Z" id="Fill-7" fill="#5B5B5A"></path>
            </g>
        </g>
    </g>
</svg>