<?xml version="1.0" encoding="UTF-8"?>
<svg width="147px" height="104px" viewBox="0 0 147 104" version="1.1" xmlns="http://www.w3.org/2000/svg" xmlns:xlink="http://www.w3.org/1999/xlink">
    <!-- Generator: Sketch 51.3 (57544) - http://www.bohemiancoding.com/sketch -->
    <title>Group 2</title>
    <desc>Created with Sketch.</desc>
    <defs>
        <path d="M76,74 L67.5,91 L59,74 L0,74 L0,0 L133,0 L133,74 L76,74 Z" id="path-1"></path>
        <filter x="-7.5%" y="-11.0%" width="116.5%" height="124.2%" filterUnits="objectBoundingBox" id="filter-2">
            <feOffset dx="1" dy="1" in="SourceAlpha" result="shadowOffsetOuter1"></feOffset>
            <feGaussianBlur stdDeviation="3.5" in="shadowOffsetOuter1" result="shadowBlurOuter1"></feGaussianBlur>
            <feColorMatrix values="0 0 0 0 0   0 0 0 0 0   0 0 0 0 0  0 0 0 0.2 0" type="matrix" in="shadowBlurOuter1"></feColorMatrix>
        </filter>
        <linearGradient x1="31.4632421%" y1="18.0442028%" x2="63.6961929%" y2="73.5095122%" id="linearGradient-3">
            <stop stop-color="#233567" offset="0%"></stop>
            <stop stop-color="#18518C" offset="13.58%"></stop>
            <stop stop-color="#0F6BAE" offset="28.1%"></stop>
            <stop stop-color="#0B75BB" offset="36%"></stop>
            <stop stop-color="#137BBF" offset="41.25%"></stop>
            <stop stop-color="#2A8CCA" offset="49.48%"></stop>
            <stop stop-color="#4EA7DB" offset="59.61%"></stop>
            <stop stop-color="#74C3EE" offset="68.6%"></stop>
            <stop stop-color="#68BAE8" offset="70.58%"></stop>
            <stop stop-color="#3695D0" offset="79.95%"></stop>
            <stop stop-color="#177EC1" offset="87.05%"></stop>
            <stop stop-color="#0B75BB" offset="91%"></stop>
            <stop stop-color="#0665AA" offset="95.55%"></stop>
            <stop stop-color="#035A9E" offset="100%"></stop>
        </linearGradient>
    </defs>
    <g id="Компания" stroke="none" stroke-width="1" fill="none" fill-rule="evenodd">
        <g id="Контакты" transform="translate(-804.000000, -676.000000)">
            <g id="Group-2" transform="translate(810.000000, 682.000000)">
                <g id="Combined-Shape" fill-rule="nonzero">
                    <use fill="black" fill-opacity="1" filter="url(#filter-2)" xlink:href="#path-1"></use>
                    <use fill="#FFFFFF" xlink:href="#path-1"></use>
                </g>
                <g id="armz_logo" transform="translate(48.000000, 10.000000)">
                    <path d="M27.6486495,11.0638298 L27.6486495,37.6811917 C27.6486495,42.9764356 23.3330042,46.7083445 18.4622882,46.7083445 C13.4277615,46.7083445 9.27474838,43.0852829 9.27474838,37.6811917 L9.27474838,22.6758079 L3.68632947,22.6758079 L3.68632947,37.7421941 C3.68632947,46.310035 10.437922,52 18.4622882,52 C26.4866544,52 33.2406039,46.310035 33.2406039,37.7421941 L33.2406039,16.3518969 L37,16.3518969 L37,11.0638298 L27.6486495,11.0638298 Z M0,11.0638298 L0,16.3518969 L15.6621863,16.3518969 L15.6621863,37.4910079 C15.6621863,39.0447739 16.9349599,40.3640994 18.4292904,40.3640994 C19.8116639,40.3640994 21.2506052,39.2744298 21.2506052,37.4910079 C21.2506052,23.4592696 21.2506052,14.3962331 21.3059944,11.0638298 L0,11.0638298 Z" id="Fill-1" fill="url(#linearGradient-3)"></path>
                    <path d="M35.5330393,0.00543610771 C35.6717361,0.00543610771 35.79338,0.14665136 35.704705,0.284530819 L34.0130588,2.90535248 C34.7190482,2.98207572 35.309078,3.477997 35.647862,4.0673205 C35.9616351,4.60883096 35.9809617,5.60512124 35.7831482,6.30786171 C35.5466816,7.14069812 34.865703,7.48873256 34.0460277,7.62661202 C33.5719575,7.70555913 32.9898857,7.740029 32.3964453,7.74447672 C31.6915927,7.74781251 30.9708241,7.71000686 30.3955734,7.64996258 C30.2477818,7.63550747 30.1045375,7.6188285 29.9669776,7.59992568 C29.8260071,7.58102285 29.689584,7.55989615 29.5622558,7.53543367 C29.4588016,7.51097119 29.3769478,7.4220167 29.3826321,7.31415938 L29.5815824,6.20111632 C29.6054564,6.07324424 29.7475638,6.0109761 29.8680709,6.03877438 C30.0090414,6.08102776 30.2102654,6.10771411 30.359194,6.12995273 C30.4581007,6.14218397 30.5558706,6.15552715 30.6547773,6.16553453 C30.7684632,6.1788777 30.8741911,6.18888508 30.9765084,6.19889246 C31.3539456,6.23113846 31.8462055,6.25893674 32.3282337,6.26227253 C32.7102184,6.26560833 33.0853818,6.25337709 33.3809652,6.21779529 C33.6674536,6.18332543 33.9584895,6.11549763 34.0426171,5.8108285 C34.1108286,5.48836847 34.1369764,5.01690968 34.0414802,4.69556158 C33.858446,4.27413969 33.52762,4.27413969 33.1058453,4.253013 C32.9785171,4.24634141 32.834136,4.24411755 32.6738389,4.24411755 L31.6222443,4.24411755 C31.4164728,4.24411755 31.3903251,4.07732788 31.463084,3.97391828 L33.0865187,1.40313353 L30.9992456,1.40313353 L30.9924244,1.86124915 C30.9901507,1.97466613 30.899202,2.06695641 30.7877898,2.06806834 L29.7896276,2.07473993 C29.6759417,2.07473993 29.5815824,1.98133771 29.5815824,1.87125653 L29.5997721,0.210031434 C29.5997721,0.0977263909 29.6952683,0.00543610771 29.8078173,0.00543610771 C31.7143299,-0.00679513464 33.6231161,0.00543610771 35.5330393,0.00543610771" id="Fill-4" fill="#5B5B5A"></path>
                    <path d="M23.3958839,4.59281509 L25.4861544,0.140607859 C25.5531277,0.0629923206 25.6823743,0 25.7916465,0 L29.1403092,0 C29.2601561,0 29.3565036,0.0933636181 29.3565036,0.208099631 L29.3565036,1.20922758 C29.3565036,1.3239636 29.2601561,1.41732721 29.1403092,1.41732721 L28.3530797,1.41732721 L28.3530797,6.32735364 L29.1649836,6.32735364 C29.2848305,6.32735364 29.3823529,6.42071725 29.3823529,6.53545327 L29.3823529,7.53770608 C29.3823529,7.65131723 29.2848305,7.74468085 29.1649836,7.74468085 L25.7904715,7.74468085 C25.6729745,7.74468085 25.5742771,7.65131723 25.5742771,7.53770608 L25.5742771,6.53545327 C25.5742771,6.42071725 25.6729745,6.32735364 25.7904715,6.32735364 L26.6129501,6.32735364 L26.6129501,1.57705774 L24.4862555,5.88640739 C24.426332,5.98989478 24.313535,6.06413573 24.1878132,6.06413573 L22.6063044,6.06413573 C22.4805827,6.06413573 22.3654357,5.98989478 22.3078622,5.88640739 L20.1811676,1.57705774 L20.1811676,6.32735364 L21.0001212,6.32735364 C21.1199681,6.32735364 21.2174906,6.42071725 21.2174906,6.53545327 L21.2174906,7.53770608 C21.2174906,7.65131723 21.1199681,7.74468085 21.0001212,7.74468085 L17.6279591,7.74468085 C17.5081122,7.74468085 17.4117647,7.65131723 17.4117647,7.53770608 L17.4117647,6.53545327 C17.4117647,6.42071725 17.5081122,6.32735364 17.6279591,6.32735364 L18.4410379,6.32735364 L18.4410379,1.41732721 L17.6526334,1.41732721 C17.5351365,1.41732721 17.437614,1.3239636 17.437614,1.20922758 L17.437614,0.208099631 C17.437614,0.0933636181 17.5351365,0 17.6526334,0 L21.0001212,0 C21.1117433,0 21.239815,0.0629923206 21.3091382,0.140607859 L23.3958839,4.59281509" id="Fill-6" fill="#5B5B5A"></path>
                    <path d="M12.3166114,1.41732721 C13.0588235,1.41732721 13.7998268,1.41395263 14.5408302,1.41395263 C15.2201839,1.40832831 15.4184295,1.82565244 15.4184295,2.44882647 C15.4184295,3.19348568 15.0352353,3.54781749 14.5178627,3.54781749 L12.3166114,3.54781749 L12.3166114,1.41732721 Z M4.99965696,1.54781131 L3.87425062,4.11137379 L6.12627211,4.11137379 L4.99965696,1.54781131 Z M10.4816309,6.3284785 L10.4816309,1.41732721 L9.63183429,1.41732721 C9.50974403,1.41732721 9.40941242,1.3239636 9.40941242,1.21035245 L9.40941242,0.206974768 C9.40941242,0.0933636181 9.50974403,0 9.63183429,0 L14.5855563,0 C16.2549292,0 17.4045118,0.794153185 17.4117647,2.469074 C17.4117647,4.21148658 16.2404234,4.95502094 14.5069834,4.95052149 L12.3166114,4.95052149 L12.3166114,6.3284785 L13.1651992,6.3284785 C13.2884983,6.3284785 13.3888299,6.42071725 13.3888299,6.5343284 L13.3888299,7.53770608 C13.3888299,7.65131723 13.2884983,7.74468085 13.1651992,7.74468085 L6.27374749,7.74468085 C6.15165722,7.74468085 6.0501168,7.65131723 6.0501168,7.53770608 L6.0501168,6.5343284 C6.0501168,6.42071725 6.15165722,6.3284785 6.27374749,6.3284785 L6.99420096,6.3284785 L6.6738651,5.49270539 L3.32665763,5.49270539 L3.00632177,6.3284785 L3.72677524,6.3284785 C3.84886551,6.3284785 3.94919712,6.42071725 3.94919712,6.5343284 L3.94919712,7.53770608 C3.94919712,7.65131723 3.84886551,7.74468085 3.72677524,7.74468085 L0.222421876,7.74468085 C0.100331607,7.74468085 0,7.65131723 0,7.53770608 L0,6.5343284 C0,6.42071725 0.100331607,6.3284785 0.222421876,6.3284785 L1.07100969,6.3284785 L3.65061993,0.185602373 C3.69776369,0.0708663607 3.79084241,0 3.9226032,0 L6.07912835,0 C6.20968032,0 6.30275904,0.0708663607 6.3499028,0.185602373 L8.92951304,6.3284785 L10.4816309,6.3284785 Z" id="Fill-7" fill="#5B5B5A"></path>
                </g>
            </g>
        </g>
    </g>
</svg>