<?xml version="1.0" encoding="UTF-8"?>
<svg width="36px" height="46px" viewBox="0 0 36 46" version="1.1" xmlns="http://www.w3.org/2000/svg" xmlns:xlink="http://www.w3.org/1999/xlink">
    <!-- Generator: Sketch 51.2 (57519) - http://www.bohemiancoding.com/sketch -->
    <title>Group 2</title>
    <desc>Created with Sketch.</desc>
    <defs></defs>
    <g id="Главная" stroke="none" stroke-width="1" fill="none" fill-rule="evenodd">
        <g id="Главная_v1" transform="translate(-802.000000, -667.000000)" fill-rule="nonzero">
            <g id="Group-2" transform="translate(802.000000, 667.000000)">
                <g id="pdf">
                    <path d="M3,0 C1.35,0 0,1.29375 0,2.875 L0,43.125 C0,44.70625 1.35,46 3,46 L33,46 C34.65,46 36,44.70625 36,43.125 L36,11.5 L24,0 L3,0 Z" id="Shape" fill="#E2E5E7"></path>
                    <path d="M27,11.5 L36,11.5 L24,0 L24,8.625 C24,10.20625 25.35,11.5 27,11.5 Z" id="Shape" fill="#B0B7BD"></path>
                    <polygon id="Shape" fill="#CAD1D8" points="36 20.125 27 11.5 36 11.5"></polygon>
                </g>
                <path d="M6.5,22.5 L28.5,22.5" id="Line-3" stroke="#439BDE" stroke-width="2" stroke-linecap="square"></path>
                <path d="M6.5,29.25 L28.5,29.25" id="Line-3" stroke="#439BDE" stroke-width="2" stroke-linecap="square"></path>
                <path d="M6.5,36.2083333 L17.5,36.2083333" id="Line-3" stroke="#439BDE" stroke-width="2" stroke-linecap="square"></path>
            </g>
        </g>
    </g>
</svg>