<?xml version="1.0" encoding="UTF-8"?>
<svg width="42px" height="46px" viewBox="0 0 42 46" version="1.1" xmlns="http://www.w3.org/2000/svg" xmlns:xlink="http://www.w3.org/1999/xlink">
    <!-- Generator: Sketch 51.3 (57544) - http://www.bohemiancoding.com/sketch -->
    <title>pdf</title>
    <desc>Created with Sketch.</desc>
    <defs></defs>
    <g id="Symbols" stroke="none" stroke-width="1" fill="none" fill-rule="evenodd">
        <g id="pdf" transform="translate(-451.000000, -4.000000)" fill-rule="nonzero">
            <g transform="translate(451.000000, 4.000000)">
                <path d="M9,0 C7.35,0 6,1.29375 6,2.875 L6,43.125 C6,44.70625 7.35,46 9,46 L39,46 C40.65,46 42,44.70625 42,43.125 L42,11.5 L30,0 L9,0 Z" id="Shape" fill="#E2E5E7"></path>
                <path d="M33,11.5 L42,11.5 L30,0 L30,8.625 C30,10.20625 31.35,11.5 33,11.5 Z" id="Shape" fill="#B0B7BD"></path>
                <polygon id="Shape" fill="#CAD1D8" points="42 20.125 33 11.5 42 11.5"></polygon>
                <path d="M36,37.375 C36,38.165625 35.325,38.8125 34.5,38.8125 L1.5,38.8125 C0.675,38.8125 0,38.165625 0,37.375 L0,23 C0,22.209375 0.675,21.5625 1.5,21.5625 L34.5,21.5625 C35.325,21.5625 36,22.209375 36,23 L36,37.375 Z" id="Shape" fill="#D0021B"></path>
                <g id="Group" transform="translate(6.468750, 26.414063)" fill="#FFFFFF">
                    <path d="M0.06975,0.82225 C0.06975,0.44275 0.38175,0.02875 0.88425,0.02875 L3.65475,0.02875 C5.21475,0.02875 6.61875,1.02925 6.61875,2.946875 C6.61875,4.763875 5.21475,5.775875 3.65475,5.775875 L1.65225,5.775875 L1.65225,7.293875 C1.65225,7.799875 1.31625,8.0859375 0.88425,8.0859375 C0.48825,8.0859375 0.06975,7.799875 0.06975,7.293875 L0.06975,0.82225 Z M1.65225,1.4763125 L1.65225,4.3398125 L3.65475,4.3398125 C4.45875,4.3398125 5.09475,3.659875 5.09475,2.946875 C5.09475,2.1433125 4.45875,1.4763125 3.65475,1.4763125 L1.65225,1.4763125 Z" id="Shape"></path>
                    <path d="M8.96775,8.0859375 C8.57175,8.0859375 8.13975,7.8789375 8.13975,7.374375 L8.13975,0.84525 C8.13975,0.4326875 8.57175,0.13225 8.96775,0.13225 L11.71425,0.13225 C17.19525,0.13225 17.07525,8.0859375 11.82225,8.0859375 L8.96775,8.0859375 Z M9.72375,1.53525 L9.72375,6.684375 L11.71425,6.684375 C14.95275,6.684375 15.09675,1.53525 11.71425,1.53525 L9.72375,1.53525 Z" id="Shape"></path>
                    <path d="M19.01925,1.62725 L19.01925,3.4543125 L22.07775,3.4543125 C22.50975,3.4543125 22.94175,3.8683125 22.94175,4.269375 C22.94175,4.648875 22.50975,4.959375 22.07775,4.959375 L19.01925,4.959375 L19.01925,7.3729375 C19.01925,7.7754375 18.72075,8.0845 18.30075,8.0845 C17.77275,8.0845 17.45025,7.7754375 17.45025,7.3729375 L17.45025,0.8438125 C17.45025,0.43125 17.77425,0.1308125 18.30075,0.1308125 L22.51125,0.1308125 C23.03925,0.1308125 23.35125,0.43125 23.35125,0.8438125 C23.35125,1.2118125 23.03925,1.6258125 22.51125,1.6258125 L19.01925,1.6258125 L19.01925,1.62725 Z" id="Shape"></path>
                </g>
            </g>
        </g>
    </g>
</svg>