<?xml version="1.0" encoding="UTF-8"?>
<svg width="49px" height="62px" viewBox="0 0 49 62" version="1.1" xmlns="http://www.w3.org/2000/svg" xmlns:xlink="http://www.w3.org/1999/xlink">
    <!-- Generator: Sketch 51.2 (57519) - http://www.bohemiancoding.com/sketch -->
    <title>rosatom_logo</title>
    <desc>Created with Sketch.</desc>
    <defs>
        <radialGradient cx="33.7383129%" cy="21.6060761%" fx="33.7383129%" fy="21.6060761%" r="70.5746307%" id="radialGradient-1">
            <stop stop-color="#6C95CF" offset="0%"></stop>
            <stop stop-color="#32396A" offset="100%"></stop>
        </radialGradient>
        <linearGradient x1="22.7506742%" y1="12.3473239%" x2="86.9907092%" y2="77.2020564%" id="linearGradient-2">
            <stop stop-color="#6C95CF" offset="0%"></stop>
            <stop stop-color="#32396A" offset="100%"></stop>
        </linearGradient>
        <linearGradient x1="55.5700112%" y1="83.7140902%" x2="33.631709%" y2="9.18544971%" id="linearGradient-3">
            <stop stop-color="#6C95CF" offset="0%"></stop>
            <stop stop-color="#32396A" offset="100%"></stop>
        </linearGradient>
        <linearGradient x1="94.0996504%" y1="30.4568981%" x2="6.94065756%" y2="83.5337961%" id="linearGradient-4">
            <stop stop-color="#6C95CF" offset="0%"></stop>
            <stop stop-color="#32396A" offset="100%"></stop>
        </linearGradient>
        <linearGradient x1="29.5490741%" y1="70.0282322%" x2="69.6546296%" y2="1.85823849%" id="linearGradient-5">
            <stop stop-color="#6C95CF" offset="0%"></stop>
            <stop stop-color="#32396A" offset="100%"></stop>
        </linearGradient>
        <linearGradient x1="85.1477699%" y1="43.9175438%" x2="8.93237024%" y2="54.2806885%" id="linearGradient-6">
            <stop stop-color="#6C95CF" offset="0%"></stop>
            <stop stop-color="#32396A" offset="100%"></stop>
        </linearGradient>
        <linearGradient x1="46.1957043%" y1="18.4738739%" x2="64.9500987%" y2="90.5129129%" id="linearGradient-7">
            <stop stop-color="#6C95CF" offset="0%"></stop>
            <stop stop-color="#32396A" offset="100%"></stop>
        </linearGradient>
    </defs>
    <g id="Symbols" stroke="none" stroke-width="1" fill="none" fill-rule="evenodd">
        <g id="header_main" transform="translate(-1314.000000, -17.000000)" fill-rule="nonzero">
            <g id="rosatom_logo" transform="translate(1314.000000, 17.000000)">
                <path d="M27.7247137,27.3595456 C25.8988736,29.4044865 22.6853952,29.5505537 20.6404544,27.7247137 C18.5955135,25.82584 18.4494463,22.6853952 20.2752863,20.6404544 C22.1011264,18.5955135 25.3146048,18.4494463 27.3595456,20.2752863 C29.4044865,22.1011264 29.5505537,25.3146048 27.7247137,27.3595456 Z" id="Shape" fill="url(#radialGradient-1)"></path>
                <path d="M23.7666667,6.22530465 C24.2066667,6.62644123 24.5733333,6.96072172 24.94,7.3618583 C26.9933333,9.56810948 27.9466667,11.7743607 27.9466667,11.7743607 C29.2666667,11.974929 30.44,12.0417851 31.54,11.974929 C31.6133333,11.974929 31.6866667,11.974929 31.76,11.974929 C31.8333333,11.974929 31.9066667,11.974929 31.98,11.974929 C34.4733333,11.7743607 37.7,10.9052314 40.7066667,8.16413146 C40.78,8.09727536 40.9266667,7.96356317 41,7.89670707 C40.56,7.42871439 40.0466667,6.89386562 39.5333333,6.42587294 C30.88,-1.39629036 17.46,-2.06485133 8,4.35333395 C15.4066667,1.07738521 20.54,3.3504925 23.7666667,6.22530465 Z" id="Shape" fill="url(#linearGradient-2)"></path>
                <path d="M8.75406084,31.5072464 C8.9045654,30.9275362 9.05506996,30.4202899 9.28082679,29.9130435 C10.409611,27.0144928 12.0651611,24.9855072 12.0651611,24.9855072 C11.6136474,23.7536232 11.0868815,22.6666667 10.409611,21.7246377 C10.3343587,21.6521739 10.3343587,21.5797101 10.2591064,21.5797101 C10.1838541,21.5072464 10.1838541,21.5072464 10.1086019,21.4347826 C8.60355628,19.4057971 6.12023107,17.0869565 1.98135573,16.0724638 C1.83085117,16 1.68034661,16 1.52984205,16 C1.30408521,16.5797101 1.07832838,17.2318841 0.85257154,17.9565217 C-2.38327646,29.5507246 3.8626627,41.4347826 15,46 C8.00153805,41.4347826 7.55002437,35.7826087 8.75406084,31.5072464 Z" id="Shape" fill="url(#linearGradient-3)"></path>
                <path d="M38.9804769,34.3535912 C38.38366,34.4972376 37.8614452,34.640884 37.2646283,34.7127072 C34.1313396,35.2154696 31.5202656,34.8563536 31.5202656,34.8563536 C30.6250403,35.8618785 29.9536212,36.7955801 29.4314065,37.801105 C29.4314065,37.8729282 29.3568043,37.9447514 29.3568043,38.0165746 C29.3568043,38.0883978 29.2822022,38.160221 29.2822022,38.160221 C28.2377726,40.3867403 27.4171494,43.6187845 28.5361811,47.5690608 C28.5361811,47.7127072 28.6107832,47.8563536 28.6853853,48 C29.4314065,47.8563536 30.1028255,47.7127072 30.8488466,47.5690608 C42.7851847,44.480663 50.245396,33.4198895 48.8279559,22 C48.1565369,30.0441989 43.3820016,33.2044199 38.9804769,34.3535912 Z" id="Shape" fill="url(#linearGradient-4)"></path>
                <path d="M9.41049383,3.99283814 C9.41049383,3.99283814 3.93209877,7.37750838 1,14.071634 C1.77160494,14.2220638 9.41049383,15.7263616 12.2654321,24 C12.9598765,23.5487106 15.1203704,21.893983 16.5864198,17.3810893 C18.3611111,11.890402 21.6790123,7.82879775 26,6.09885518 C26,6.09885518 20.5216049,-1.49784914 9.41049383,3.99283814 Z" id="Shape" fill="url(#linearGradient-5)"></path>
                <path d="M26.0895394,44.3073792 C26.0895394,41.5641682 26.8415511,37.9312671 30,34.4466477 L30,34.3725068 C29.4735918,33.853521 27.7439651,32.5189859 23.156694,33.5569576 C17.5166066,34.8173519 11.3501111,34.6690702 7.7404552,32 C7.7404552,32 3.82999463,40.2296331 13.9821519,46.8281677 C13.9821519,46.8281677 19.5470381,49.7196604 26.8415511,48.8299703 C26.6911487,48.4592662 26.0895394,46.679886 26.0895394,44.3073792 Z" id="Shape" fill="url(#linearGradient-6)"></path>
                <path d="M43.5960223,9 C42.8146714,9.97597598 39.2630764,13.954955 33.225365,13.954955 C32.2309184,13.954955 31.2364719,13.8798799 30.1709934,13.5795796 L30.0999615,13.5795796 C29.8868658,14.3303303 29.744802,16.5075075 32.6571098,19.8108108 C36.4218005,24.0900901 39.2630764,29.4954955 38.6948212,34 C38.6948212,34 47.3607129,33.1741742 48,21.0870871 C48,21.0870871 47.7869043,14.7807808 43.5960223,9 Z" id="Shape" fill="url(#linearGradient-7)"></path>
                <path d="M3,56.1395349 C3.39344262,56.0697674 3.91803279,56 4.70491803,56 C5.49180328,56 6.01639344,56.1395349 6.40983607,56.4883721 C6.73770492,56.7674419 7,57.255814 7,57.8837209 C7,58.4418605 6.80327869,58.9302326 6.47540984,59.2790698 C6.01639344,59.6976744 5.42622951,59.9069767 4.70491803,59.9069767 C4.57377049,59.9069767 4.37704918,59.9069767 4.24590164,59.9069767 L4.24590164,62 L3,62 L3,56.1395349 Z M4.24590164,58.7906977 C4.37704918,58.7906977 4.50819672,58.8604651 4.63934426,58.8604651 C5.29508197,58.8604651 5.68852459,58.5116279 5.68852459,57.8837209 C5.68852459,57.3255814 5.36065574,57.0465116 4.70491803,57.0465116 C4.44262295,57.0465116 4.24590164,57.0465116 4.18032787,57.1162791 L4.18032787,58.7906977 L4.24590164,58.7906977 Z" id="Shape" fill="#1A1A1A"></path>
                <path d="M14,58.9655172 C14,60.8965517 12.7407407,62 10.962963,62 C9.11111111,62 8,60.6896552 8,59.0344828 C8,57.3103448 9.18518519,56 11.037037,56 C12.962963,56 14,57.3793103 14,58.9655172 Z M9.48148148,59.0344828 C9.48148148,60.2068966 10.0740741,60.9655172 11.037037,60.9655172 C12,60.9655172 12.5185185,60.137931 12.5185185,58.9655172 C12.5185185,57.9310345 12,57.0344828 11.037037,57.0344828 C10.0740741,57.1034483 9.48148148,57.9310345 9.48148148,59.0344828 Z" id="Shape" fill="#1A1A1A"></path>
                <path d="M18.9402985,61.7241379 C18.7014925,61.862069 18.2835821,62 17.6268657,62 C15.8955224,62 15,60.7586207 15,59.1034483 C15,57.1034483 16.2537313,56 17.7462687,56 C18.3432836,56 18.761194,56.137931 19,56.2758621 L18.761194,57.3103448 C18.5223881,57.1724138 18.2238806,57.1034483 17.8059701,57.1034483 C16.9104478,57.1034483 16.1940299,57.7241379 16.1940299,59.0344828 C16.1940299,60.2068966 16.7910448,60.9655172 17.8059701,60.9655172 C18.1641791,60.9655172 18.5223881,60.8965517 18.761194,60.7586207 L18.9402985,61.7241379 Z" id="Shape" fill="#1A1A1A"></path>
                <path d="M22.4084507,60.0714286 L21.7746479,62 L21,62 L23.0422535,56 L23.9577465,56 L26,62 L25.1549296,62 L24.5211268,60.0714286 L22.4084507,60.0714286 Z M24.3802817,59.4285714 L23.8169014,57.7142857 C23.6760563,57.2857143 23.6056338,56.9285714 23.5352113,56.6428571 C23.4647887,57 23.3239437,57.3571429 23.2535211,57.7142857 L22.6901408,59.4285714 L24.3802817,59.4285714 Z" id="Shape" fill="#1A1A1A"></path>
                <polygon id="Shape" fill="#1A1A1A" points="28.6774194 56.6428571 27 56.6428571 27 56 31 56 31 56.6428571 29.3225806 56.6428571 29.3225806 62 28.6129032 62 28.6129032 56.6428571"></polygon>
                <path d="M37,58.9655172 C37,60.9655172 35.8311688,62 34.4675325,62 C33.038961,62 32,60.8275862 32,59.0344828 C32,57.1724138 33.1038961,56 34.5324675,56 C36.025974,56 37,57.2413793 37,58.9655172 Z M32.7792208,59.1034483 C32.7792208,60.3448276 33.4285714,61.4482759 34.5324675,61.4482759 C35.6363636,61.4482759 36.2857143,60.3448276 36.2857143,59.0344828 C36.2857143,57.862069 35.7012987,56.6896552 34.5324675,56.6896552 C33.3636364,56.6206897 32.7792208,57.7931034 32.7792208,59.1034483 Z" id="Shape" fill="#1A1A1A"></path>
                <path d="M44.0930233,59.3571429 C44.0232558,58.5 44.0232558,57.5 44.0232558,56.7857143 C43.8139535,57.5 43.6046512,58.2857143 43.255814,59.0714286 L42.2093023,62 L41.6511628,62 L40.6744186,59.1428571 C40.3953488,58.2857143 40.1860465,57.5 39.9767442,56.7857143 C39.9767442,57.5714286 39.9069767,58.5714286 39.8372093,59.4285714 L39.6976744,62 L39,62 L39.4186047,56 L40.3953488,56 L41.372093,58.9285714 C41.5813953,59.6428571 41.7906977,60.3571429 42,60.9285714 C42.1395349,60.2857143 42.3488372,59.6428571 42.627907,58.9285714 L43.6744186,56 L44.6511628,56 L45,62 L44.2325581,62 L44.0930233,59.3571429 Z" id="Shape" fill="#1A1A1A"></path>
            </g>
        </g>
    </g>
</svg>