<?xml version="1.0" encoding="UTF-8"?>
<svg width="28px" height="28px" viewBox="0 0 28 28" version="1.1" xmlns="http://www.w3.org/2000/svg" xmlns:xlink="http://www.w3.org/1999/xlink">
    <!-- Generator: Sketch 51.2 (57519) - http://www.bohemiancoding.com/sketch -->
    <title>Group 4</title>
    <desc>Created with Sketch.</desc>
    <defs></defs>
    <g id="Symbols" stroke="none" stroke-width="1" fill="none" fill-rule="evenodd">
        <g id="Group-4" fill-rule="nonzero">
            <circle id="Oval" fill="#005392" cx="14" cy="14" r="14"></circle>
            <g id="vk-social-logotype" transform="translate(6.000000, 10.000000)" fill="#FFFFFF">
                <path d="M12.9617251,5.41878497 C13.4607747,5.90622369 13.988742,6.36496376 14.4367475,6.9027894 C14.6352282,7.1407033 14.822317,7.38672293 14.9647148,7.66341286 C15.1680151,8.05796438 14.9844315,8.4906347 14.6312849,8.51407557 L12.4377011,8.51363742 C11.8711768,8.56051917 11.4203234,8.33202543 11.0402307,7.94470334 C10.7368138,7.63602867 10.4553043,7.30632293 10.1630601,6.98713273 C10.043665,6.85612673 9.9179168,6.7327883 9.76807047,6.6357387 C9.46903504,6.44120137 9.20921377,6.50078938 9.03789823,6.8131883 C8.86329659,7.13106407 8.8234252,7.48333438 8.80677561,7.83713821 C8.78289659,8.35437093 8.6269162,8.48953933 8.10793089,8.5138565 C6.99898044,8.56577694 5.94677004,8.39752843 4.96882558,7.83845265 C4.10611383,7.34531803 3.43837756,6.64932127 2.85651813,5.8613136 C1.72346958,4.32516967 0.855719136,2.63917941 0.0760362687,0.904773881 C-0.099441668,0.51416569 0.0289354493,0.305169495 0.459853179,0.297063773 C1.17578563,0.283262138 1.89171809,0.285014726 2.60765055,0.296406552 C2.89901841,0.301007097 3.09180316,0.467722091 3.20374975,0.742659432 C3.5906337,1.69453413 4.06492799,2.60018431 4.65927461,3.44011241 C4.81766481,3.66378653 4.97934111,3.88680344 5.20958744,4.04475549 C5.46371279,4.21913806 5.65737384,4.1615217 5.77720709,3.87782142 C5.85388284,3.69752386 5.88696295,3.50473912 5.90361254,3.31151622 C5.96057167,2.64969494 5.96736295,1.98809273 5.86877984,1.32890033 C5.80743924,0.916384781 5.57544032,0.649991309 5.16423921,0.572001115 C4.95480487,0.532348797 4.98547517,0.45479675 5.08734439,0.335182576 C5.26413676,0.128377117 5.42975639,0.000438147158 5.76077657,0.000438147158 L8.23915597,-1.77635684e-15 C8.62976416,0.0766757526 8.71739359,0.251934616 8.77040939,0.645390763 L8.77260013,3.3995838 C8.76799959,3.55183993 8.84905681,4.00313151 9.12246064,4.10280999 C9.34153421,4.17510427 9.48612278,3.99940726 9.61712878,3.86073368 C10.2114754,3.23002085 10.6349446,2.48560883 11.014161,1.71512705 C11.1815332,1.37534393 11.3259027,1.02373083 11.4661098,0.671460519 C11.5703888,0.410982034 11.7325033,0.28282399 12.0265,0.287205462 L14.4130876,0.290053418 C14.4834102,0.290053418 14.5548282,0.290710639 14.6244936,0.302759686 C15.0267127,0.37154879 15.1369067,0.544616917 15.0124729,0.936977697 C14.8166211,1.55345075 14.4360903,2.06695922 14.0641034,2.58178213 C13.6653894,3.13297125 13.2401676,3.6648819 12.845397,4.21848084 C12.4826112,4.7245408 12.5113098,4.97932337 12.9617251,5.41878497 Z" id="Path"></path>
            </g>
        </g>
    </g>
</svg>