<?xml version="1.0" encoding="UTF-8"?>
<svg width="57px" height="78px" viewBox="0 0 57 78" version="1.1" xmlns="http://www.w3.org/2000/svg" xmlns:xlink="http://www.w3.org/1999/xlink">
    <!-- Generator: Sketch 51.3 (57544) - http://www.bohemiancoding.com/sketch -->
    <title>armz_logo</title>
    <desc>Created with Sketch.</desc>
    <defs>
        <linearGradient x1="31.4632421%" y1="18.0442028%" x2="63.6961929%" y2="73.5095122%" id="linearGradient-1">
            <stop stop-color="#233567" offset="0%"></stop>
            <stop stop-color="#18518C" offset="13.58%"></stop>
            <stop stop-color="#0F6BAE" offset="28.1%"></stop>
            <stop stop-color="#0B75BB" offset="36%"></stop>
            <stop stop-color="#137BBF" offset="41.25%"></stop>
            <stop stop-color="#2A8CCA" offset="49.48%"></stop>
            <stop stop-color="#4EA7DB" offset="59.61%"></stop>
            <stop stop-color="#74C3EE" offset="68.6%"></stop>
            <stop stop-color="#68BAE8" offset="70.58%"></stop>
            <stop stop-color="#3695D0" offset="79.95%"></stop>
            <stop stop-color="#177EC1" offset="87.05%"></stop>
            <stop stop-color="#0B75BB" offset="91%"></stop>
            <stop stop-color="#0665AA" offset="95.55%"></stop>
            <stop stop-color="#035A9E" offset="100%"></stop>
        </linearGradient>
    </defs>
    <g id="Symbols" stroke="none" stroke-width="1" fill="none" fill-rule="evenodd">
        <g id="logo-/-armz">
            <g id="armz_logo">
                <path d="M42.5938655,16 L42.5938655,56.3134058 C42.5938655,64.3333333 35.9454389,69.9855072 28.4419034,69.9855072 C20.686011,69.9855072 14.2881259,64.4981884 14.2881259,56.3134058 L14.2881259,33.5869565 L5.67893999,33.5869565 L5.67893999,56.4057971 C5.67893999,69.3822464 16.080042,78 28.4419034,78 C40.8037648,78 51.2084979,69.3822464 51.2084979,56.4057971 L51.2084979,24.009058 L57,24.009058 L57,16 L42.5938655,16 Z M0,16 L0,24.009058 L24.1282329,24.009058 L24.1282329,56.0253623 C24.1282329,58.3786232 26.0889922,60.3768116 28.3910689,60.3768116 C30.5206714,60.3768116 32.7374188,58.7264493 32.7374188,56.0253623 C32.7374188,34.7735507 32.7374188,21.0471014 32.8227481,16 L0,16 Z" id="Fill-1" fill="url(#linearGradient-1)"></path>
                <path d="M55.41997,0.00842298008 C55.6323886,0.00842298008 55.81869,0.227229031 55.6828815,0.440866435 L53.092072,4.50169999 C54.1733171,4.62057887 55.0769664,5.38898437 55.5958247,6.30211198 C56.0763781,7.14115566 56.1059774,8.68485819 55.8030198,9.77371979 C55.4408637,11.0641586 54.3979235,11.6034208 53.1425649,11.8170582 C52.4165115,11.9393828 51.5250501,11.9927922 50.6161775,11.9996837 C49.5366735,12.0048524 48.4327937,11.9462744 47.5517791,11.8532387 C47.3254315,11.8308412 47.1060485,11.804998 46.8953711,11.775709 C46.6794703,11.74642 46.4705341,11.7136853 46.2755269,11.6757818 C46.1170836,11.6378784 45.9917218,11.5000478 46.0004275,11.3329283 L46.3051262,9.60832309 C46.34169,9.41019163 46.559332,9.31371022 46.7438923,9.35678228 C46.9597931,9.42225181 47.2679741,9.46360098 47.4960628,9.49805863 C47.6475416,9.51701033 47.7972792,9.53768492 47.948758,9.55319086 C48.1228716,9.57386545 48.2847971,9.58937139 48.4414993,9.60487733 C49.0195563,9.65484092 49.7734679,9.69791297 50.5117093,9.70308162 C51.0967308,9.70825027 51.6713055,9.68929856 52.1240007,9.63416633 C52.5627668,9.58075698 53.0084975,9.47566116 53.1373415,9.00359141 C53.2418096,8.50395555 53.2818558,7.77345346 53.1356004,7.27554047 C52.8552776,6.62256809 52.3486072,6.62256809 51.7026459,6.58983332 C51.5076388,6.57949603 51.2865146,6.57605027 51.0410145,6.57605027 L49.4304642,6.57605027 C49.1153187,6.57605027 49.0752726,6.31761792 49.1867053,6.15738987 L51.6730466,2.17408602 L48.476322,2.17408602 L48.4658752,2.88391352 C48.462393,3.05964751 48.3231021,3.20264674 48.1524709,3.20436963 L46.623754,3.21470692 C46.4496404,3.21470692 46.3051262,3.06998481 46.3051262,2.89941946 L46.3329844,0.325433321 C46.3329844,0.15142221 46.4792397,0.00842298008 46.6516121,0.00842298008 C49.5714962,-0.0105287251 52.4948626,0.00842298008 55.41997,0.00842298008" id="Fill-4" fill="#5B5B5A"></path>
                <path d="M34.9982332,7.11633987 L38.1413428,0.217864924 C38.2420495,0.0976034858 38.4363958,0 38.6007067,0 L43.6360424,0 C43.8162544,0 43.9611307,0.144662309 43.9611307,0.322440087 L43.9611307,1.87363834 C43.9611307,2.05141612 43.8162544,2.19607843 43.6360424,2.19607843 L42.4522968,2.19607843 L42.4522968,9.80392157 L43.6731449,9.80392157 C43.8533569,9.80392157 44,9.94858388 44,10.1263617 L44,11.6793028 C44,11.8553377 43.8533569,12 43.6731449,12 L38.5989399,12 C38.4222615,12 38.2738516,11.8553377 38.2738516,11.6793028 L38.2738516,10.1263617 C38.2738516,9.94858388 38.4222615,9.80392157 38.5989399,9.80392157 L39.835689,9.80392157 L39.835689,2.44357298 L36.6378092,9.12069717 C36.5477032,9.28104575 36.3780919,9.39607843 36.1890459,9.39607843 L33.8109541,9.39607843 C33.6219081,9.39607843 33.4487633,9.28104575 33.3621908,9.12069717 L30.164311,2.44357298 L30.164311,9.80392157 L31.3957597,9.80392157 C31.5759717,9.80392157 31.7226148,9.94858388 31.7226148,10.1263617 L31.7226148,11.6793028 C31.7226148,11.8553377 31.5759717,12 31.3957597,12 L26.3250883,12 C26.1448763,12 26,11.8553377 26,11.6793028 L26,10.1263617 C26,9.94858388 26.1448763,9.80392157 26.3250883,9.80392157 L27.5477032,9.80392157 L27.5477032,2.19607843 L26.3621908,2.19607843 C26.1855124,2.19607843 26.0388693,2.05141612 26.0388693,1.87363834 L26.0388693,0.322440087 C26.0388693,0.144662309 26.1855124,0 26.3621908,0 L31.3957597,0 C31.5636042,0 31.7561837,0.0976034858 31.860424,0.217864924 L34.9982332,7.11633987" id="Fill-6" fill="#5B5B5A"></path>
                <path d="M18.3916968,2.19607843 C19.5,2.19607843 20.6064982,2.19084967 21.7129964,2.19084967 C22.7274368,2.18213508 23.0234657,2.82875817 23.0234657,3.79433551 C23.0234657,4.94814815 22.4512635,5.49716776 21.6787004,5.49716776 L18.3916968,5.49716776 L18.3916968,2.19607843 Z M7.46570397,2.39825708 L5.78519856,6.37037037 L9.14801444,6.37037037 L7.46570397,2.39825708 Z M15.6516245,9.80566449 L15.6516245,2.19607843 L14.3826715,2.19607843 C14.200361,2.19607843 14.0505415,2.05141612 14.0505415,1.87538126 L14.0505415,0.320697168 C14.0505415,0.144662309 14.200361,0 14.3826715,0 L21.7797834,0 C24.2725632,0 25.9891697,1.23050109 26,3.82570806 C26,6.5254902 24.2509025,7.67755991 21.6624549,7.67058824 L18.3916968,7.67058824 L18.3916968,9.80566449 L19.6588448,9.80566449 C19.8429603,9.80566449 19.9927798,9.94858388 19.9927798,10.1246187 L19.9927798,11.6793028 C19.9927798,11.8553377 19.8429603,12 19.6588448,12 L9.36823105,12 C9.18592058,12 9.03429603,11.8553377 9.03429603,11.6793028 L9.03429603,10.1246187 C9.03429603,9.94858388 9.18592058,9.80566449 9.36823105,9.80566449 L10.4440433,9.80566449 L9.96570397,8.51067538 L4.96750903,8.51067538 L4.48916968,9.80566449 L5.56498195,9.80566449 C5.74729242,9.80566449 5.89711191,9.94858388 5.89711191,10.1246187 L5.89711191,11.6793028 C5.89711191,11.8553377 5.74729242,12 5.56498195,12 L0.332129964,12 C0.149819495,12 0,11.8553377 0,11.6793028 L0,10.1246187 C0,9.94858388 0.149819495,9.80566449 0.332129964,9.80566449 L1.59927798,9.80566449 L5.45126354,0.287581699 C5.52166065,0.109803922 5.66064982,0 5.85740072,0 L9.07761733,0 C9.27256318,0 9.41155235,0.109803922 9.48194946,0.287581699 L13.333935,9.80566449 L15.6516245,9.80566449 Z" id="Fill-7" fill="#5B5B5A"></path>
            </g>
        </g>
    </g>
</svg>