<?xml version="1.0" encoding="utf-8"?>
<!-- Generator: Adobe Illustrator 21.0.0, SVG Export Plug-In . SVG Version: 6.00 Build 0)  -->
<svg version="1.1" id="_x31_" xmlns="http://www.w3.org/2000/svg" xmlns:xlink="http://www.w3.org/1999/xlink" x="0px" y="0px"
	 viewBox="0 0 182 194" height="60px">
<style type="text/css">
	.st0{fill-rule:evenodd;clip-rule:evenodd;fill:url(#SVGID_1_);}
	.st1{fill-rule:evenodd;clip-rule:evenodd;fill:url(#SVGID_2_);}
	.st2{fill:#6D6E70;}
</style>
<g>
	<radialGradient id="SVGID_1_" cx="74.0132" cy="49.7476" r="85.0422" gradientUnits="userSpaceOnUse">
		<stop  offset="0" style="stop-color:#85C0EC"/>
		<stop  offset="0.5" style="stop-color:#127CC2"/>
		<stop  offset="1" style="stop-color:#1C3471"/>
	</radialGradient>
	<path class="st0" d="M93.5,104.6l27.2-16.9c1-0.6,1.8-1.4,2.5-2.3l-17.5-9c-0.5,0.7-1.2,1.4-2.3,2.1l-9.9,6.7l-10.2-6.9
		c-1-0.7-1.6-1.3-2.1-1.9l-17.4,9c0.7,0.9,1.6,1.7,2.5,2.3L93.5,104.6L93.5,104.6z M128.9,31.9c20.1,20.1,20.1,52.6,0,72.7
		c-20.1,20.1-52.6,20.1-72.7,0c-20.1-20.1-20.1-52.6,0-72.7c1.6-1.6,3.2-3,5-4.4v50.6c0,1.3,0.3,2.7,0.9,4.1l18.4-9.4
		c0-0.4,0-0.9,0-1.4V18.3c8.7-2.1,17.7-1.9,26.3,0.5v52.6c0,0.5,0,1,0,1.4l18.4,9.4c0.6-1.4,0.9-2.9,0.9-4.1v-49
		C127,30,127.9,30.9,128.9,31.9L128.9,31.9z"/>
	<radialGradient id="SVGID_2_" cx="88.3624" cy="13.1938" r="29.4257" gradientUnits="userSpaceOnUse">
		<stop  offset="0" style="stop-color:#85C0EC"/>
		<stop  offset="0.51" style="stop-color:#127CC2"/>
		<stop  offset="1" style="stop-color:#1C3471"/>
	</radialGradient>
	<path class="st1" d="M61.1,6.9h19.3v8.3c-6.8,1.6-13.4,4.5-19.3,8.7V6.9L61.1,6.9z M106.7,15.7V6.9H126v18.6
		C120.1,20.8,113.6,17.6,106.7,15.7z"/>
	<path class="st2" d="M19,145.2c-0.2,4.1-0.7,8.2-1.5,12.2c-0.7,4-1.7,8-2.8,11.8H9.3l1.7,14.9h6v-8.4h23v8.4h5.9l1.7-14.9h-5.9v-24
		H19L19,145.2z M34.4,151.6v17.5H22.6c0.5-2,1-4,1.4-6c0.4-2,0.8-4,1.1-6c0.3-2,0.5-3.8,0.7-5.6H34.4L34.4,151.6z M76.3,156.1
		c0-2.3-0.3-4.2-0.8-5.7c-0.5-1.5-1.3-2.7-2.4-3.7c-1.1-0.9-2.5-1.6-4.1-1.9c-1.7-0.4-3.6-0.6-5.9-0.6c-1.5,0-2.9,0.1-4.4,0.2
		c-1.5,0.2-2.8,0.4-4.2,0.6c-1.3,0.2-2.5,0.5-3.6,0.8l1.4,6.1c0.8-0.3,1.8-0.6,2.8-0.8c1-0.2,2.1-0.4,3.1-0.5
		c1.1-0.1,2.2-0.2,3.3-0.2c1.6,0,2.9,0.1,3.9,0.3c1,0.2,1.8,0.5,2.3,1c0.5,0.5,0.9,1.1,1.1,2c0.2,0.8,0.3,1.9,0.3,3.3
		c-1.3-0.3-2.5-0.5-3.8-0.6c-1.2-0.1-2.5-0.2-3.8-0.2c-1.8,0-3.4,0.1-4.9,0.3c-1.5,0.2-2.7,0.7-3.8,1.4c-1.1,0.7-1.9,1.7-2.4,3
		c-0.6,1.3-0.9,3.1-0.9,5.2c0,2,0.2,3.6,0.7,4.9c0.4,1.3,1.2,2.4,2.2,3.1c1,0.8,2.3,1.3,4,1.6c1.6,0.3,3.7,0.5,6.1,0.5
		c1.1,0,2.2-0.1,3.4-0.2c1.2-0.1,2.4-0.3,3.6-0.5c1.2-0.2,2.4-0.5,3.6-0.7c1.1-0.3,2.2-0.6,3.2-1V156.1L76.3,156.1z M69.2,169.8
		c-0.9,0.3-1.9,0.5-2.9,0.7c-1.1,0.2-2.1,0.3-3.2,0.3c-1.1,0-2,0-2.8-0.2c-0.7-0.1-1.3-0.3-1.7-0.7c-0.4-0.3-0.7-0.8-0.9-1.4
		c-0.2-0.6-0.3-1.5-0.2-2.5c0-1,0.1-1.7,0.3-2.3c0.2-0.6,0.5-1,1-1.3c0.4-0.3,1-0.5,1.8-0.6c0.7-0.1,1.6-0.1,2.7-0.1
		c1.1,0,2.2,0,3.2,0.1c1,0.1,2,0.2,2.8,0.4V169.8L69.2,169.8z M100.2,151.6v24h7.4v-30.5H84.9c-0.2,3.6-0.6,7.2-1,10.8
		c-0.5,3.6-1.1,7-1.8,10.4c-0.7,3.3-1.5,6.4-2.4,9.4h7.8c0.5-1.7,1.1-3.6,1.5-5.5c0.5-2,0.9-4,1.3-6c0.4-2.1,0.8-4.2,1-6.3
		c0.3-2.1,0.5-4.1,0.7-6.2H100.2L100.2,151.6z M121.8,177.1c-0.5,1.1-1,2.2-1.6,3.4c-0.6,1.2-1.1,2.3-1.7,3.5
		c-0.6,1.1-1.1,2.2-1.7,3.1h8.3c0.5-1,1.1-2.1,1.6-3.2c0.5-1.1,1.1-2.3,1.6-3.5c0.5-1.2,1-2.4,1.5-3.5c1.5-3.5,2.9-7,4.3-10.5
		c1.4-3.5,2.7-7.1,3.9-10.7c1.2-3.5,2.4-7.1,3.4-10.5h-7.5c-1,3.8-2.1,7.6-3.4,11.5c-1.3,3.9-2.7,7.8-4.1,11.6
		c-0.7-2.6-1.5-5.3-2.3-8c-0.8-2.7-1.7-5.3-2.6-7.9c-0.9-2.6-1.8-5-2.7-7.2h-7.7c0.9,2.3,1.9,4.7,2.9,7.3c1,2.6,1.9,5.3,2.8,8
		c0.9,2.8,1.8,5.5,2.7,8.3C120.3,171.7,121.1,174.4,121.8,177.1L121.8,177.1z M152.1,151.6c0.5-0.2,1.1-0.4,1.8-0.5
		c0.7-0.1,1.3-0.2,2.1-0.3c0.7-0.1,1.4-0.1,2.1-0.1c1.3,0,2.4,0.1,3.3,0.4c0.9,0.3,1.6,0.7,2.2,1.4c0.5,0.7,0.9,1.7,1.2,3
		c0.2,1.3,0.3,3,0.3,5.1c0,1.9-0.1,3.4-0.3,4.7c-0.2,1.2-0.6,2.2-1.2,3c-0.5,0.7-1.3,1.2-2.1,1.5c-0.9,0.3-2,0.5-3.3,0.4
		c-1.1,0-2.1-0.1-3-0.4c-0.9-0.2-1.6-0.6-2.2-1c-0.5-0.4-0.8-1-0.8-1.6V151.6L152.1,151.6z M144.7,187.1h7.4v-12.4
		c0.5,0.3,1.2,0.6,1.9,0.8c0.7,0.3,1.5,0.5,2.4,0.7c0.9,0.2,1.9,0.3,3.1,0.3c2,0,3.9-0.3,5.5-0.8c1.6-0.5,3-1.4,4.2-2.6
		c1.1-1.2,2-2.9,2.6-5c0.6-2.1,0.9-4.7,0.9-7.7c0-3.1-0.3-5.7-0.9-7.8c-0.6-2.1-1.5-3.7-2.7-4.9c-1.2-1.2-2.7-2.1-4.5-2.6
		c-1.8-0.5-4-0.8-6.5-0.8c-1.1,0-2.3,0.1-3.5,0.2c-1.2,0.1-2.4,0.3-3.6,0.5c-1.2,0.2-2.3,0.4-3.4,0.7c-1.1,0.3-2,0.6-2.9,0.9V187.1z
		"/>
</g>
</svg>
