<?xml version="1.0" encoding="UTF-8"?>
<!DOCTYPE svg PUBLIC "-//W3C//DTD SVG 1.1//EN" "http://www.w3.org/Graphics/SVG/1.1/DTD/svg11.dtd">
<!-- Creator: CorelDRAW 2018 (64-Bit) -->
<svg xmlns="http://www.w3.org/2000/svg" xml:space="preserve" width="73.2873mm" height="24.3866mm" version="1.1" style="shape-rendering:geometricPrecision; text-rendering:geometricPrecision; image-rendering:optimizeQuality; fill-rule:evenodd; clip-rule:evenodd"
viewBox="0 0 732872 243866"
 xmlns:xlink="http://www.w3.org/1999/xlink">
 <defs>
  <style type="text/css">
   <![CDATA[
    .fil0 {fill:#737370;fill-rule:nonzero}
    .fil4 {fill:url(#id0)}
    .fil1 {fill:url(#id1)}
    .fil2 {fill:url(#id2)}
    .fil5 {fill:url(#id3)}
    .fil6 {fill:url(#id4);fill-rule:nonzero}
    .fil3 {fill:url(#id5);fill-rule:nonzero}
   ]]>
  </style>
  <linearGradient id="id0" gradientUnits="userSpaceOnUse" x1="217807" y1="-10092" x2="20081" y2="155824">
   <stop offset="0" style="stop-opacity:1; stop-color:#233871"/>
   <stop offset="0.509804" style="stop-opacity:1; stop-color:#1D3E78"/>
   <stop offset="0.831373" style="stop-opacity:1; stop-color:#0078BF"/>
   <stop offset="1" style="stop-opacity:1; stop-color:#75C5EF"/>
  </linearGradient>
  <linearGradient id="id1" gradientUnits="userSpaceOnUse" xlink:href="#id0" x1="218986" y1="253957" x2="21260" y2="88041">
  </linearGradient>
  <radialGradient id="id2" gradientUnits="userSpaceOnUse" gradientTransform="matrix(1.78658 1.53135 -1.53135 1.78658 175943 -526133)" cx="225155" cy="230545" r="104445" fx="225155" fy="230545">
   <stop offset="0" style="stop-opacity:1; stop-color:#75C5EF"/>
   <stop offset="0.270588" style="stop-opacity:1; stop-color:#0078BF"/>
   <stop offset="0.690196" style="stop-opacity:1; stop-color:#134581"/>
   <stop offset="1" style="stop-opacity:1; stop-color:#233871"/>
  </radialGradient>
  <radialGradient id="id3" gradientUnits="userSpaceOnUse" gradientTransform="matrix(-1.78658 -1.53135 1.53135 -1.78658 300930 721177)" xlink:href="#id2" cx="192179" cy="153193" r="104445" fx="192179" fy="153193">
  </radialGradient>
  <linearGradient id="id4" gradientUnits="userSpaceOnUse" x1="244134" y1="45657" x2="-23022" y2="112447">
   <stop offset="0" style="stop-opacity:1; stop-color:#233871"/>
   <stop offset="0.2" style="stop-opacity:1; stop-color:#134581"/>
   <stop offset="0.490196" style="stop-opacity:1; stop-color:#0078BF"/>
   <stop offset="0.658824" style="stop-opacity:1; stop-color:#5AB4E6"/>
   <stop offset="1" style="stop-opacity:1; stop-color:#75C5EF"/>
  </linearGradient>
  <linearGradient id="id5" gradientUnits="userSpaceOnUse" xlink:href="#id4" x1="248619" y1="187628" x2="-18537" y2="120838">
  </linearGradient>
 </defs>
 <g id="Слой_x0020_1">
  <metadata id="CorelCorpID_0Corel-Layer"/>
  <g id="_2264390356368">
   <path class="fil0" d="M345065 91199l39573 0 0 79344 24536 0 0 -100713 -88643 0 0 100713 24534 0 0 -79344zm114264 0l45508 0 0 -21369 -70042 0 0 100713 24534 0 0 -79344zm88643 -198c1748,-659 3697,-1223 5871,-1648 2172,-425 4454,-762 6793,-989 2337,-228 4649,-330 6925,-330 4353,-33 7980,363 10948,1220 3001,825 5376,2407 7156,4716 1781,2308 3067,5606 3891,9925 792,4321 1155,9894 1155,16787 0,6199 -363,11377 -1155,15498 -791,4123 -2077,7388 -3858,9762 -1780,2407 -4155,4122 -7090,5112 -2935,1022 -6563,1516 -10849,1483 -3661,0 -6995,-399 -9960,-1187 -2964,-787 -5342,-1913 -7123,-3363 -1747,-1452 -2671,-3167 -2704,-5145l0 -51841zm-24534 117531l24534 0 0 -40958c1814,957 3891,1848 6167,2705 2275,890 4917,1620 7849,2177 2931,556 6331,824 10124,857 6760,32 12795,-824 18170,-2572 5408,-1748 9992,-4617 13785,-8673 3792,-4056 6693,-9531 8738,-16390 2012,-6859 3002,-15400 3035,-25590 0,-10257 -957,-18797 -2870,-25690 -1912,-6859 -4847,-12333 -8805,-16356 -3956,-4024 -8969,-6926 -15037,-8640 -6068,-1748 -13257,-2572 -21567,-2540 -3693,0 -7552,198 -11542,528 -3991,363 -7984,861 -11938,1517 -3954,656 -7688,1455 -11212,2374 -3525,920 -6695,1946 -9431,3100l0 134151zm209435 -37989c-4221,-8805 -8016,-16261 -11377,-22326 -3360,-6064 -6430,-11014 -9134,-14906 -2738,-3891 -5244,-6958 -7519,-9200 -2275,-2275 -4423,-4027 -6463,-5244 -2041,-1216 -4057,-2176 -6069,-2934 2705,-2111 7322,-7058 13818,-14807 6497,-7782 14642,-18204 24370,-31296l-29085 0c-5442,7222 -10619,13983 -15566,20215 -4914,6266 -9398,11806 -13389,16621 -4023,4815 -7354,8706 -10025,11641l0 -48477 -24534 0 0 100713 24534 0 0 -46696c2573,528 5112,1352 7651,2473 2539,1155 5112,2737 7717,4848 2572,2078 5276,4847 8046,8277 2770,3397 5672,7651 8706,12763 3034,5078 6233,11212 9629,18335l28690 0z"/>
   <g>
    <path class="fil1" d="M1458 205483c3042,24515 21013,38383 46317,38383l144316 0c27377,0 49775,-22398 49775,-49775l0 -95958 -3171 1127 -54517 25285c-8163,7113 -13014,11095 -25959,13877l-122285 26289c-25820,5550 -36684,22036 -34476,40772z"/>
    <path class="fil2" d="M32976 241606c4680,1468 9651,2260 14799,2260l144316 0c27377,0 49775,-22398 49775,-49775l0 -89958 -89 -26781 -4527 3792 -51577 41864 -117741 105790c-11537,10366 -23790,11474 -34956,7914l0 4894z"/>
    <path class="fil3" d="M4571 217826c12048,21353 41048,23797 59071,8641l178135 -151115c1,30 385,13030 -8182,20216l-158154 135598c-10573,8585 -21937,12787 -32631,12516 -12590,-319 -30058,-5899 -38239,-25856z"/>
    <path class="fil4" d="M240408 38383c-3042,-24515 -21013,-38383 -46317,-38383l-144316 0c-27377,0 -49775,22398 -49775,49775l0 95958 3171 -1127 54517 -25285c8163,-7113 13014,-11095 25959,-13877l122285 -26289c25820,-5550 36684,-22036 34476,-40772z"/>
    <path class="fil5" d="M208890 2260c-4680,-1468 -9651,-2260 -14799,-2260l-144316 0c-27377,0 -49775,22398 -49775,49775l0 89958 89 26781 4527 -3792 51577 -41864 117741 -105790c11537,-10366 23790,-11474 34956,-7914l0 -4894z"/>
    <path class="fil6" d="M237295 26040c-12048,-21353 -41048,-23797 -59071,-8641l-178135 151115c-1,-30 -385,-13030 8182,-20216l158154 -135598c10573,-8585 21937,-12787 32631,-12516 12590,319 30058,5899 38239,25856z"/>
   </g>
  </g>
 </g>
</svg>
