<?xml version="1.0" encoding="utf-8"?>
<!-- Generator: Adobe Illustrator 21.0.0, SVG Export Plug-In . SVG Version: 6.00 Build 0)  -->
<svg version="1.1" id="_x31_" xmlns="http://www.w3.org/2000/svg" xmlns:xlink="http://www.w3.org/1999/xlink" x="0px" y="0px"
	 viewBox="0 0 169 163" style="enable-background:new 0 0 169 163;" xml:space="preserve" height="60px">
<style type="text/css">
	.st0{fill-rule:evenodd;clip-rule:evenodd;fill:url(#SVGID_1_);}
	.st1{fill-rule:evenodd;clip-rule:evenodd;fill:url(#SVGID_2_);}
	.st2{fill:#6D6E70;}
</style>
<g>
	<radialGradient id="SVGID_1_" cx="69.4823" cy="33.4846" r="84.4088" gradientUnits="userSpaceOnUse">
		<stop  offset="0" style="stop-color:#85C0EC"/>
		<stop  offset="0.5" style="stop-color:#127CC2"/>
		<stop  offset="1" style="stop-color:#1C3471"/>
	</radialGradient>
	<path class="st0" d="M52.2,90.7L52.2,90.7c1,0.3,2.1,0.3,3.4,0.2c3-0.3,6.8-1.8,11.4-4.4l0,0c4.2-2.4,9-5.8,14.4-10.4
		c0.1,0,0.1,0,0.2,0c0.1,0,0.1,0,0.2,0.1l0.1,0c0.1,0.1,0.2,0.1,0.3,0.2c0.1,0.1,0.2,0.2,0.3,0.4c0.1,0.1,0.2,0.3,0.2,0.5
		c0.1,0.2,0.1,0.3,0.2,0.5c0.1,0.4,0.1,0.8,0.1,1.2c-0.1,0.3-0.2,0.5-0.4,0.7l0,0l0,0c-5.3,4.7-10.1,8.5-14.3,11.4
		c-3.6,2.4-6.8,4.2-9.6,5.5c16.6,10.4,37.9,10.4,54.6,0c-2.9-1.2-6.1-3-9.7-5.5c-4.2-2.9-9-6.6-14.3-11.4l0,0l0,0
		c-0.2-0.2-0.3-0.4-0.4-0.7c-0.1-0.4,0-0.8,0.1-1.2c0-0.2,0.1-0.3,0.2-0.5c0.1-0.2,0.2-0.3,0.2-0.5c0.1-0.1,0.2-0.3,0.3-0.4
		c0.1-0.1,0.2-0.2,0.3-0.2l0.1,0c0.1,0,0.2-0.1,0.2-0.1c0.1,0,0.1,0,0.2,0c5.4,4.5,10.2,8,14.4,10.4l0,0c4.6,2.6,8.4,4.1,11.4,4.4
		c1.3,0.1,2.5,0.1,3.4-0.2l0,0c2.1-0.5,3.5-1.9,4-4c0.3-1,0.3-2.1,0.2-3.4c-0.3-2.9-1.8-6.8-4.4-11.4c-2.4-4.2-5.8-9.1-10.4-14.5
		c0-0.1,0-0.1,0-0.2c0-0.1,0-0.2,0.1-0.2l0-0.1c0.1-0.1,0.1-0.2,0.2-0.3c0.1-0.1,0.2-0.2,0.4-0.3h0c0.1-0.1,0.3-0.2,0.5-0.2h0
		c0.2-0.1,0.3-0.1,0.5-0.2c0.4-0.1,0.8-0.1,1.2-0.1c0.3,0.1,0.5,0.2,0.7,0.4l0,0l0,0c4.7,5.3,8.5,10.1,11.3,14.3
		c2.4,3.6,4.2,6.9,5.4,9.8c10.6-16.7,10.6-38.2,0-54.8c-1.2,2.9-3,6.1-5.4,9.8c-2.9,4.2-6.6,9-11.3,14.3l0,0l0,0
		c-0.2,0.2-0.4,0.3-0.7,0.4c-0.4,0.1-0.8,0-1.2-0.1c-0.2,0-0.3-0.1-0.5-0.2h0c-0.2-0.1-0.3-0.1-0.5-0.2l0,0
		c-0.1-0.1-0.3-0.2-0.4-0.3c-0.1-0.1-0.2-0.2-0.2-0.3l0-0.1c0-0.1-0.1-0.2-0.1-0.2c0-0.1,0-0.1,0-0.2c4.5-5.4,8-10.3,10.4-14.5
		c2.6-4.6,4.1-8.4,4.4-11.4c0.2-1.3,0.1-2.5-0.2-3.4c-0.5-2.1-2-3.5-4-4l0,0c-1-0.3-2.1-0.3-3.4-0.2c-3,0.3-6.8,1.8-11.4,4.4l0,0
		c-4.2,2.4-9,5.8-14.4,10.4c-0.1,0-0.1,0-0.2,0c-0.1,0-0.1,0-0.2-0.1l-0.1,0c-0.1-0.1-0.2-0.1-0.3-0.2c-0.1-0.1-0.2-0.2-0.3-0.4
		c-0.1-0.1-0.2-0.3-0.2-0.5c-0.1-0.2-0.1-0.3-0.2-0.5c-0.1-0.4-0.1-0.8-0.1-1.2c0.1-0.3,0.2-0.5,0.4-0.7l0,0l0,0
		c5.3-4.7,10.1-8.5,14.3-11.4c3.6-2.4,6.8-4.2,9.6-5.5C96.6-0.9,75.3-1,58.6,9.5c2.9,1.2,6.1,3,9.7,5.5c4.2,2.9,9,6.6,14.3,11.4l0,0
		l0,0c0.2,0.2,0.3,0.4,0.4,0.7c0.1,0.4,0,0.8-0.1,1.2c0,0.2-0.1,0.3-0.2,0.5c-0.1,0.2-0.2,0.3-0.2,0.5c-0.1,0.1-0.2,0.3-0.3,0.4
		c-0.1,0.1-0.2,0.2-0.3,0.2l-0.1,0c-0.1,0-0.2,0.1-0.2,0.1c-0.1,0-0.1,0-0.2,0c-5.4-4.5-10.2-8-14.4-10.4l0,0
		c-4.6-2.6-8.4-4.1-11.4-4.4c-1.3-0.1-2.5-0.1-3.4,0.2l0,0c-2.1,0.5-3.5,1.9-4,4c-0.3,1-0.3,2.1-0.2,3.4c0.3,2.9,1.8,6.8,4.4,11.4
		c2.4,4.2,5.8,9.1,10.4,14.5c0,0.1,0,0.1,0,0.2c0,0.1,0,0.2-0.1,0.2l0,0.1c-0.1,0.1-0.1,0.2-0.2,0.3c-0.1,0.1-0.2,0.2-0.4,0.3l0,0
		c-0.1,0.1-0.3,0.2-0.5,0.2h0c-0.2,0.1-0.3,0.1-0.5,0.2c-0.4,0.1-0.8,0.1-1.2,0.1c-0.3-0.1-0.5-0.2-0.7-0.4l0,0l0,0
		c-4.7-5.3-8.5-10.1-11.3-14.3c-2.4-3.6-4.2-6.9-5.4-9.8c-10.6,16.7-10.6,38.2,0,54.8c1.2-2.9,3-6.1,5.4-9.8
		c2.9-4.2,6.6-9,11.3-14.3l0,0l0,0c0.2-0.2,0.4-0.3,0.7-0.4c0.4-0.1,0.8,0,1.2,0.1c0.2,0,0.3,0.1,0.5,0.2h0c0.2,0.1,0.3,0.2,0.5,0.2
		h0c0.1,0.1,0.3,0.2,0.4,0.3c0.1,0.1,0.2,0.2,0.2,0.3l0,0.1c0,0.1,0.1,0.2,0.1,0.2c0,0.1,0,0.1,0,0.2c-4.5,5.4-8,10.3-10.4,14.5
		c-2.6,4.6-4.1,8.4-4.4,11.4c-0.1,1.3-0.1,2.5,0.2,3.4C48.7,88.8,50.1,90.2,52.2,90.7L52.2,90.7z M65.3,53L65.3,53
		c0-11.4,9.2-20.6,20.6-20.6c11.4,0,20.6,9.2,20.6,20.6c0,11.4-9.2,20.6-20.6,20.6C74.5,73.6,65.3,64.4,65.3,53z"/>
	<radialGradient id="SVGID_2_" cx="82.2346" cy="49.3169" r="20.7089" gradientUnits="userSpaceOnUse">
		<stop  offset="0" style="stop-color:#85C0EC"/>
		<stop  offset="0.5" style="stop-color:#127CC2"/>
		<stop  offset="1" style="stop-color:#1C3471"/>
	</radialGradient>
	<path class="st1" d="M85.9,40.7c6.8,0,12.2,5.5,12.2,12.2c0,6.8-5.5,12.2-12.2,12.2c-6.8,0-12.2-5.5-12.2-12.2
		C73.7,46.2,79.1,40.7,85.9,40.7L85.9,40.7z"/>
	<path class="st2" d="M19.4,136.5h11.9v24h7.4v-30.4H12v30.4h7.4V136.5L19.4,136.5z M52.1,136.5H64v24h7.4v-30.4H44.7v30.4h7.4
		V136.5L52.1,136.5z M84.8,136.5h13.7v-6.5H77.4v30.4h7.4V136.5L84.8,136.5z M127,160.5h-8.4c-0.8-1.4-1.8-2.9-2.9-4.6
		c-1.1-1.6-2.2-3.3-3.5-5.1c-1.3,1.8-2.6,3.5-3.9,5.2c-1.3,1.6-2.4,3.1-3.6,4.4h-8.2c1.1-1.3,2.3-2.7,3.6-4.3c1.3-1.6,2.6-3.4,4-5.2
		c1.4-1.8,2.8-3.7,4.2-5.6c-1.4-1.9-2.8-3.8-4.2-5.6c-1.4-1.8-2.7-3.6-4-5.2c-1.3-1.6-2.5-3.1-3.6-4.4h8.8c1,1.3,2.1,2.7,3.3,4.3
		c1.2,1.6,2.4,3.3,3.7,5c1.3-1.8,2.4-3.5,3.5-5c1-1.6,2-3,2.8-4.3h8.2c-0.9,1.4-1.9,2.9-3.1,4.5c-1.1,1.6-2.3,3.3-3.6,5.1
		c-1.2,1.8-2.5,3.6-3.8,5.4c1.3,1.8,2.5,3.6,3.8,5.4c1.2,1.8,2.4,3.5,3.6,5.2C125,157.4,126,159,127,160.5L127,160.5z M142.4,161.3
		c2.4,0,4.6-0.2,6.4-0.8c1.8-0.5,3.3-1.4,4.5-2.6c1.2-1.2,2.1-2.9,2.7-5c0.6-2.1,0.9-4.7,0.9-7.8c0-3.1-0.3-5.7-0.9-7.7
		c-0.6-2.1-1.5-3.7-2.7-4.9c-1.2-1.2-2.7-2.1-4.6-2.6c-1.8-0.5-4-0.8-6.4-0.7c-2.4,0-4.5,0.2-6.3,0.7c-1.8,0.5-3.3,1.4-4.5,2.6
		c-1.2,1.2-2.1,2.8-2.7,4.9c-0.6,2.1-0.9,4.6-0.9,7.7c0,3.1,0.3,5.7,0.9,7.8c0.6,2.1,1.5,3.8,2.7,5c1.2,1.2,2.7,2.1,4.5,2.6
		C137.9,161,140,161.3,142.4,161.3L142.4,161.3z M142.4,135.2c1.3,0,2.4,0.1,3.3,0.3c0.9,0.2,1.6,0.7,2.1,1.4c0.5,0.7,0.9,1.7,1.1,3
		c0.2,1.3,0.3,3.1,0.3,5.2c0,2.1-0.1,3.8-0.3,5.1c-0.2,1.3-0.6,2.3-1.1,3.1c-0.5,0.7-1.2,1.2-2.1,1.5c-0.9,0.3-2,0.4-3.3,0.4
		c-1.3,0-2.4-0.1-3.3-0.4c-0.9-0.3-1.6-0.8-2.1-1.5c-0.5-0.7-0.9-1.7-1.1-3.1c-0.2-1.3-0.3-3-0.3-5.1c0-2.2,0.1-3.9,0.3-5.2
		c0.2-1.3,0.6-2.3,1.1-3c0.5-0.7,1.2-1.2,2.1-1.4C140,135.3,141.1,135.2,142.4,135.2z"/>
</g>
</svg>
