<?xml version="1.0" encoding="utf-8"?>
<!-- Generator: Adobe Illustrator 21.0.0, SVG Export Plug-In . SVG Version: 6.00 Build 0)  -->
<svg version="1.1" id="_x31_" xmlns="http://www.w3.org/2000/svg" xmlns:xlink="http://www.w3.org/1999/xlink" x="0px" y="0px"
	 viewBox="0 0 240.4 157.1" style="enable-background:new 0 0 240.4 157.1;" xml:space="preserve" height="60px">
<style type="text/css">
	.st0{fill-rule:evenodd;clip-rule:evenodd;fill:url(#SVGID_1_);}
	.st1{fill:#6D6E70;}
</style>
<g>
	<linearGradient id="SVGID_1_" gradientUnits="userSpaceOnUse" x1="78.3029" y1="51.0195" x2="158.3752" y2="51.0195">
		<stop  offset="0" style="stop-color:#1C3471"/>
		<stop  offset="0.3" style="stop-color:#127CC2"/>
		<stop  offset="0.6" style="stop-color:#85C0EC"/>
		<stop  offset="0.8" style="stop-color:#127CC2"/>
		<stop  offset="1" style="stop-color:#1C3471"/>
	</linearGradient>
	<path class="st0" d="M152.1,80.9l0-2.7l-25.3-12.5l0,13.1l-0.1,5l14.8,7.3l4.4-2.1C149.4,87.4,152.1,84.8,152.1,80.9L152.1,80.9z
		 M152.1,68.7l-25.3-12.5l0-21.8L152,47L152.1,68.7L152.1,68.7z M152,32.8L152,0h-25.3l0,20.3L152,32.8L152,32.8z M111.2,76.2
		l0-18.2L85.9,45.5v18.2L111.2,76.2L111.2,76.2z M111.2,48.5L85.9,36l0-21.8l25.3,12.5V48.5L111.2,48.5z M111.2,12.6V0H85.9v0.1
		L111.2,12.6L111.2,12.6z M85.9,67.3l51.9,25.7l-12.4,6L119,102l-6.4-3.2L92.1,88.8c-3.5-1.7-6.2-4.4-6.2-8.3V67.3z"/>
	<path class="st1" d="M240.4,123.7h-5.9v19.1h-8.3v-19.1h-5.9v19.1H212v-19.1H206V148h34.3V123.7L240.4,123.7z M0,157.1h5.9v-9.9
		c0.4,0.2,0.9,0.4,1.5,0.7c0.5,0.2,1.2,0.4,1.9,0.5c0.7,0.1,1.5,0.2,2.4,0.2c1.6,0,3.1-0.2,4.4-0.6c1.3-0.4,2.4-1.1,3.3-2.1
		c0.9-1,1.6-2.3,2.1-4c0.5-1.7,0.7-3.7,0.7-6.2c0-2.5-0.2-4.5-0.7-6.2c-0.5-1.7-1.2-3-2.1-3.9c-1-1-2.2-1.7-3.6-2.1
		c-1.5-0.4-3.2-0.6-5.2-0.6c-0.9,0-1.8,0-2.8,0.1c-1,0.1-1.9,0.2-2.9,0.4c-1,0.2-1.9,0.4-2.7,0.6c-0.8,0.2-1.6,0.5-2.3,0.7V157.1
		L0,157.1z M5.9,128.8c0.4-0.2,0.9-0.3,1.4-0.4c0.5-0.1,1.1-0.2,1.6-0.2c0.6-0.1,1.1-0.1,1.7-0.1c1,0,1.9,0.1,2.6,0.3
		c0.7,0.2,1.3,0.6,1.7,1.1c0.4,0.6,0.7,1.4,0.9,2.4c0.2,1,0.3,2.4,0.3,4.1c0,1.5-0.1,2.8-0.3,3.7c-0.2,1-0.5,1.8-0.9,2.4
		c-0.4,0.6-1,1-1.7,1.2c-0.7,0.2-1.6,0.4-2.6,0.4c-0.9,0-1.7-0.1-2.4-0.3c-0.7-0.2-1.3-0.5-1.7-0.8c-0.4-0.4-0.6-0.8-0.7-1.2V128.8
		L5.9,128.8z M31.9,149.2c-0.4,0.9-0.8,1.8-1.3,2.7c-0.4,0.9-0.9,1.9-1.4,2.8c-0.5,0.9-0.9,1.7-1.3,2.5h6.6c0.4-0.8,0.8-1.7,1.3-2.6
		c0.4-0.9,0.9-1.8,1.3-2.8c0.4-0.9,0.8-1.9,1.2-2.8c1.2-2.8,2.3-5.6,3.4-8.4c1.1-2.8,2.1-5.7,3.1-8.5c1-2.8,1.9-5.6,2.7-8.4h-6
		c-0.8,3-1.7,6.1-2.7,9.2c-1,3.1-2.1,6.2-3.3,9.2c-0.6-2.1-1.2-4.2-1.8-6.4c-0.7-2.1-1.3-4.2-2.1-6.3c-0.7-2-1.4-4-2.1-5.8h-6.2
		c0.8,1.8,1.5,3.8,2.3,5.8c0.8,2.1,1.5,4.2,2.3,6.4c0.7,2.2,1.5,4.4,2.1,6.7C30.7,144.8,31.3,147,31.9,149.2L31.9,149.2z
		 M66.7,142.3c-0.8,0.3-1.6,0.6-2.6,0.8c-1,0.2-2,0.3-3,0.3c-1.1,0-2-0.1-2.8-0.3c-0.8-0.2-1.5-0.6-2-1.1c-0.5-0.5-0.9-1.3-1.2-2.3
		c-0.3-1-0.4-2.3-0.4-3.9c0-1.7,0.1-3,0.4-4c0.3-1,0.7-1.8,1.2-2.3c0.5-0.5,1.2-0.9,2-1.1c0.8-0.2,1.7-0.3,2.8-0.3
		c0.7,0,1.3,0,2,0.1c0.7,0.1,1.3,0.2,1.9,0.4c0.6,0.2,1.2,0.3,1.7,0.5l1.3-5.1c-0.5-0.2-1-0.3-1.6-0.5c-0.6-0.1-1.2-0.3-1.9-0.4
		c-0.7-0.1-1.3-0.2-2-0.2c-0.7-0.1-1.3-0.1-1.9-0.1c-1.8,0-3.5,0.2-5,0.6c-1.5,0.4-2.7,1.1-3.8,2.1c-1,1-1.9,2.3-2.4,3.9
		c-0.6,1.6-0.8,3.7-0.8,6.2c0,2.5,0.3,4.6,0.8,6.2c0.6,1.7,1.4,3,2.4,4c1,1,2.3,1.7,3.8,2.1c1.5,0.4,3.2,0.6,5,0.6
		c0.6,0,1.2,0,1.9-0.1c0.7-0.1,1.3-0.1,2-0.2c0.7-0.1,1.3-0.2,1.9-0.4c0.6-0.2,1.2-0.3,1.6-0.5L66.7,142.3L66.7,142.3z M76.5,126.9
		c0.1-1.1,0.3-2.1,0.5-2.9c0.2-0.8,0.5-1.5,1-2.1c0.4-0.6,1-1,1.8-1.3c0.8-0.3,1.7-0.5,3-0.6c1.9-0.2,3.6-0.4,5-0.6
		c1.5-0.2,2.7-0.6,3.8-1.1V113c-1.3,0.5-2.7,1-4.2,1.2c-1.5,0.3-3.1,0.5-4.9,0.6c-1.4,0.1-2.7,0.3-3.9,0.5c-1.2,0.3-2.2,0.7-3.1,1.2
		c-0.9,0.5-1.6,1.2-2.3,2.1c-0.6,0.9-1.2,2-1.6,3.4c-0.4,1.4-0.7,3-0.9,5c-0.2,2-0.3,4.2-0.3,6.9c0,2.4,0.2,4.4,0.5,6.1
		c0.3,1.7,0.8,3.1,1.4,4.2c0.6,1.1,1.3,2,2.2,2.6c0.9,0.6,1.9,1.1,3,1.3c1.1,0.3,2.4,0.4,3.7,0.4c2,0,3.7-0.2,5.2-0.6
		c1.5-0.4,2.7-1.1,3.6-2c1-0.9,1.7-2.2,2.1-3.8c0.5-1.6,0.7-3.6,0.7-6c0-2.4-0.2-4.4-0.7-6c-0.4-1.6-1.1-2.8-1.9-3.7
		c-0.8-0.9-1.9-1.5-3.1-1.9c-1.2-0.4-2.6-0.6-4.2-0.5c-1.5,0-2.8,0.3-3.9,0.7C78.1,125.3,77.2,126,76.5,126.9L76.5,126.9z
		 M76.6,136.3c0-1.4,0.1-2.5,0.2-3.5c0.2-0.9,0.4-1.7,0.8-2.2c0.4-0.5,0.9-0.9,1.6-1.2c0.7-0.2,1.5-0.3,2.6-0.3c1,0,1.8,0.1,2.4,0.3
		c0.7,0.2,1.2,0.6,1.6,1.1c0.4,0.5,0.7,1.3,0.9,2.2c0.2,0.9,0.3,2.1,0.3,3.6c0,1.6-0.1,3-0.3,4c-0.2,1-0.5,1.8-0.9,2.3
		c-0.4,0.5-1,0.9-1.7,1c-0.7,0.2-1.6,0.3-2.6,0.2c-0.8,0-1.5-0.1-2.1-0.3c-0.6-0.2-1.1-0.6-1.5-1.2c-0.4-0.6-0.7-1.3-0.9-2.3
		C76.7,138.9,76.6,137.7,76.6,136.3L76.6,136.3z M102.6,149.2c-0.4,0.9-0.8,1.8-1.3,2.7c-0.4,0.9-0.9,1.9-1.4,2.8
		c-0.5,0.9-0.9,1.7-1.3,2.5h6.6c0.4-0.8,0.8-1.7,1.3-2.6c0.4-0.9,0.9-1.8,1.3-2.8c0.4-0.9,0.8-1.9,1.2-2.8c1.2-2.8,2.3-5.6,3.4-8.4
		c1.1-2.8,2.1-5.7,3.1-8.5c1-2.8,1.9-5.6,2.7-8.4h-6c-0.8,3-1.7,6.1-2.7,9.2c-1,3.1-2.1,6.2-3.3,9.2c-0.6-2.1-1.2-4.2-1.8-6.4
		c-0.7-2.1-1.3-4.2-2.1-6.3c-0.7-2-1.4-4-2.1-5.8H94c0.8,1.8,1.5,3.8,2.3,5.8c0.8,2.1,1.5,4.2,2.3,6.4c0.7,2.2,1.5,4.4,2.1,6.7
		C101.3,144.8,102,147,102.6,149.2L102.6,149.2z M120.8,157.1h5.9v-9.9c0.4,0.2,0.9,0.4,1.5,0.7c0.5,0.2,1.2,0.4,1.9,0.5
		c0.7,0.1,1.5,0.2,2.4,0.2c1.6,0,3.1-0.2,4.4-0.6c1.3-0.4,2.4-1.1,3.3-2.1c0.9-1,1.6-2.3,2.1-4c0.5-1.7,0.7-3.7,0.7-6.2
		c0-2.5-0.2-4.5-0.7-6.2c-0.5-1.7-1.2-3-2.1-3.9c-1-1-2.2-1.7-3.6-2.1c-1.5-0.4-3.2-0.6-5.2-0.6c-0.9,0-1.8,0-2.8,0.1
		c-1,0.1-1.9,0.2-2.9,0.4c-1,0.2-1.9,0.4-2.7,0.6c-0.8,0.2-1.6,0.5-2.3,0.7V157.1L120.8,157.1z M126.7,128.8
		c0.4-0.2,0.9-0.3,1.4-0.4c0.5-0.1,1.1-0.2,1.6-0.2c0.6-0.1,1.1-0.1,1.7-0.1c1,0,1.9,0.1,2.6,0.3c0.7,0.2,1.3,0.6,1.7,1.1
		c0.4,0.6,0.7,1.4,0.9,2.4c0.2,1,0.3,2.4,0.3,4.1c0,1.5-0.1,2.7-0.3,3.7c-0.2,1-0.5,1.8-0.9,2.4c-0.4,0.6-1,1-1.7,1.2
		c-0.7,0.2-1.6,0.4-2.6,0.4c-0.9,0-1.7-0.1-2.4-0.3c-0.7-0.2-1.3-0.5-1.7-0.8c-0.4-0.4-0.6-0.8-0.7-1.2V128.8L126.7,128.8z
		 M161.8,138.1c-1-2.5-2-5-3.1-7.4c-1-2.4-2.1-4.8-3.2-7.1h-8.6V148h5.9v-17.7c0.5,1.2,1.1,2.5,1.7,3.8c0.6,1.4,1.1,2.8,1.7,4.3
		c0.6,1.5,1.1,2.9,1.6,4.3c0.5,1.4,1,2.7,1.5,3.9h4.4c0.4-1.2,0.9-2.5,1.5-3.9c0.5-1.4,1.1-2.8,1.7-4.2c0.6-1.4,1.2-2.9,1.8-4.2
		c0.6-1.4,1.2-2.7,1.7-3.9V148h5.9v-24.3H168c-1.1,2.3-2.1,4.7-3.2,7C163.8,133.1,162.8,135.6,161.8,138.1L161.8,138.1z
		 M201.3,132.4c0-1.8-0.2-3.3-0.6-4.5c-0.4-1.2-1.1-2.2-1.9-2.9c-0.9-0.7-2-1.2-3.3-1.6c-1.3-0.3-2.9-0.5-4.7-0.5
		c-1.2,0-2.3,0.1-3.5,0.2c-1.2,0.1-2.3,0.3-3.3,0.5c-1.1,0.2-2,0.4-2.9,0.6l1.1,4.9c0.7-0.2,1.4-0.4,2.2-0.6
		c0.8-0.2,1.6-0.3,2.5-0.4c0.9-0.1,1.7-0.1,2.6-0.1c1.3,0,2.3,0.1,3.1,0.2c0.8,0.2,1.4,0.4,1.9,0.8c0.4,0.4,0.7,0.9,0.9,1.6
		c0.2,0.7,0.2,1.5,0.2,2.6c-1-0.2-2-0.4-3-0.5c-1-0.1-2-0.2-3-0.2c-1.4,0-2.7,0.1-3.9,0.3c-1.2,0.2-2.2,0.6-3,1.1
		c-0.8,0.6-1.5,1.4-1.9,2.4c-0.5,1.1-0.7,2.4-0.7,4.1c0,1.6,0.2,2.9,0.5,3.9c0.4,1.1,0.9,1.9,1.7,2.5c0.8,0.6,1.9,1,3.2,1.3
		c1.3,0.3,2.9,0.4,4.8,0.4c0.9,0,1.8,0,2.7-0.1c1-0.1,1.9-0.2,2.9-0.4c1-0.2,1.9-0.4,2.8-0.6c0.9-0.2,1.8-0.5,2.5-0.8V132.4
		L201.3,132.4z M195.6,143.3c-0.7,0.2-1.5,0.4-2.3,0.6c-0.8,0.2-1.7,0.2-2.6,0.2c-0.9,0-1.6,0-2.2-0.1c-0.6-0.1-1-0.3-1.4-0.5
		c-0.3-0.3-0.6-0.7-0.7-1.2c-0.1-0.5-0.2-1.2-0.2-2c0-0.8,0.1-1.4,0.2-1.9c0.2-0.5,0.4-0.8,0.8-1c0.4-0.2,0.8-0.4,1.4-0.5
		c0.6-0.1,1.3-0.1,2.1-0.1c0.9,0,1.8,0,2.6,0.1c0.8,0.1,1.6,0.2,2.3,0.3V143.3z"/>
</g>
</svg>
