<?xml version="1.0" encoding="utf-8"?>
<!-- Generator: Adobe Illustrator 21.0.0, SVG Export Plug-In . SVG Version: 6.00 Build 0)  -->
<svg version="1.1" id="_x31_" xmlns="http://www.w3.org/2000/svg" xmlns:xlink="http://www.w3.org/1999/xlink" x="0px" y="0px"
	 viewBox="0 0 206.5 157.5" style="enable-background:new 0 0 206.5 157.5;" xml:space="preserve" height="60px">
<style type="text/css">
	.st0{fill:#6D6E70;}
	.st1{fill-rule:evenodd;clip-rule:evenodd;fill:url(#SVGID_1_);}
	.st2{fill-rule:evenodd;clip-rule:evenodd;fill:url(#SVGID_2_);}
	.st3{fill-rule:evenodd;clip-rule:evenodd;fill:url(#SVGID_3_);}
	.st4{fill-rule:evenodd;clip-rule:evenodd;fill:url(#SVGID_4_);}
</style>
<g>
	<path class="st0" d="M67.9,135.3v-2.6h3.6c0.2,0,0.3,0,0.5,0.1c0.1,0.1,0.2,0.2,0.3,0.4c0.1,0.2,0.1,0.5,0.1,0.8
		c0,0.3,0,0.6-0.1,0.8c-0.1,0.2-0.2,0.3-0.3,0.4c-0.1,0.1-0.3,0.1-0.4,0.1H67.9L67.9,135.3z M67.9,127.1h3.6c0.1,0,0.2,0,0.3,0.1
		c0.1,0.1,0.2,0.2,0.2,0.3c0.1,0.2,0.1,0.4,0.1,0.7c0,0.3,0,0.5-0.1,0.7c-0.1,0.2-0.1,0.3-0.2,0.3c-0.1,0-0.2,0.1-0.3,0.1h-3.6
		V127.1L67.9,127.1z M73.3,130.9c0.7-0.1,1.2-0.2,1.7-0.3c0.4-0.2,0.8-0.4,1-0.7c0.2-0.3,0.4-0.7,0.5-1.1c0.1-0.4,0.1-0.9,0.1-1.5
		c0-0.6-0.1-1.2-0.2-1.7c-0.1-0.5-0.3-0.8-0.6-1.1c-0.3-0.3-0.7-0.5-1.2-0.7c-0.5-0.1-1.1-0.2-1.9-0.2h-9.1v15.3h9.1
		c0.6,0,1.2-0.1,1.7-0.2c0.5-0.1,0.9-0.4,1.3-0.7c0.4-0.3,0.6-0.7,0.8-1.2c0.2-0.5,0.3-1.2,0.3-2c0-0.6,0-1.2-0.1-1.6
		c-0.1-0.5-0.3-0.9-0.5-1.2c-0.3-0.3-0.6-0.6-1.1-0.8C74.7,131,74.1,130.9,73.3,130.9L73.3,130.9z M83.2,132.7h5v6.1h4.2v-15.3h-4.2
		v5.3h-5v-5.3H79v15.3h4.2V132.7L83.2,132.7z M109.5,138.8h-4.1v-9.1c-0.8,1.5-1.6,3.1-2.5,4.6c-0.8,1.5-1.7,3-2.6,4.5h-5.4v-15.3
		H99v9.4c0.9-1.5,1.8-3.1,2.7-4.7c0.9-1.6,1.8-3.2,2.7-4.8h5.1V138.8L109.5,138.8z M116.3,127.2h5v11.6h4.2v-15.3h-13.3v15.3h4.2
		V127.2L116.3,127.2z M142.5,138.8h-4.1v-9.1c-0.8,1.5-1.6,3.1-2.5,4.6c-0.8,1.5-1.7,3-2.6,4.5h-5.4v-15.3h4.1v9.4
		c0.9-1.5,1.8-3.1,2.7-4.7c0.9-1.6,1.8-3.2,2.7-4.8h5.1V138.8z"/>
	<path class="st0" d="M2.9,144.4h6.5v12.8h2.9v-15.3H0v15.3h2.9V144.4L2.9,144.4z M18.2,149.8v-5.4h4.3c0.6,0,1,0.2,1.4,0.7
		c0.3,0.5,0.5,1.1,0.5,2.1c0,0.9-0.2,1.5-0.5,2c-0.3,0.4-0.8,0.7-1.4,0.7H18.2L18.2,149.8z M18.2,157.2v-5h5.1
		c0.7,0,1.4-0.1,1.9-0.4c0.5-0.3,1-0.6,1.3-1.1c0.3-0.5,0.6-1,0.7-1.6c0.2-0.6,0.2-1.2,0.2-1.9c0-0.8-0.1-1.4-0.2-2.1
		c-0.1-0.6-0.4-1.2-0.7-1.7c-0.3-0.5-0.8-0.8-1.3-1.1c-0.5-0.3-1.2-0.4-2-0.4h-8v15.3H18.2L18.2,157.2z M35.7,141.5
		c-1,0-1.8,0.1-2.6,0.2c-0.8,0.2-1.5,0.4-2,0.8c-0.6,0.4-1.1,0.8-1.5,1.4c-0.4,0.6-0.7,1.4-0.9,2.3c-0.2,0.9-0.3,2-0.3,3.2
		c0,1.3,0.1,2.4,0.3,3.3c0.2,0.9,0.5,1.7,0.9,2.3c0.4,0.6,0.9,1.1,1.5,1.5c0.6,0.4,1.3,0.6,2,0.8c0.8,0.2,1.7,0.2,2.6,0.2
		c1,0,1.8-0.1,2.6-0.2c0.8-0.2,1.5-0.4,2-0.8c0.6-0.4,1.1-0.9,1.5-1.5c0.4-0.6,0.7-1.4,0.9-2.3c0.2-0.9,0.3-2,0.3-3.3
		c0-1.2-0.1-2.3-0.3-3.2c-0.2-0.9-0.5-1.7-0.9-2.3c-0.4-0.6-0.9-1.1-1.5-1.4c-0.6-0.4-1.3-0.6-2-0.8
		C37.6,141.6,36.7,141.5,35.7,141.5L35.7,141.5z M35.7,154.9c-0.7,0-1.2,0-1.7-0.1c-0.5-0.1-0.9-0.2-1.2-0.5
		c-0.3-0.2-0.6-0.5-0.8-0.9c-0.2-0.4-0.3-0.9-0.4-1.6c-0.1-0.6-0.1-1.4-0.1-2.3c0-0.9,0-1.7,0.1-2.3c0.1-0.6,0.2-1.1,0.4-1.5
		c0.2-0.4,0.4-0.7,0.8-0.9c0.3-0.2,0.7-0.4,1.2-0.4c0.5-0.1,1.1-0.1,1.7-0.1c0.7,0,1.2,0,1.7,0.1c0.5,0.1,0.9,0.2,1.2,0.4
		c0.3,0.2,0.6,0.5,0.8,0.9c0.2,0.4,0.3,0.9,0.4,1.5c0.1,0.6,0.1,1.4,0.1,2.3c0,0.9,0,1.7-0.1,2.3c-0.1,0.6-0.2,1.2-0.4,1.6
		c-0.2,0.4-0.4,0.7-0.8,0.9c-0.3,0.2-0.7,0.4-1.2,0.5C37,154.9,36.4,154.9,35.7,154.9L35.7,154.9z M53.5,151.7
		c-0.3-0.8-0.7-1.6-1-2.4c-0.4-0.8-0.7-1.7-1.1-2.5c-0.4-0.8-0.7-1.7-1.1-2.5c-0.4-0.8-0.7-1.6-1.1-2.3h-3.9v15.3H48v-11.4
		c0.3,0.7,0.7,1.5,1,2.4c0.4,0.8,0.7,1.7,1.1,2.6c0.4,0.9,0.7,1.8,1,2.6c0.3,0.9,0.7,1.7,1,2.4h2.3c0.3-0.8,0.6-1.6,1-2.4
		c0.4-0.8,0.7-1.7,1.1-2.6c0.4-0.9,0.7-1.7,1.1-2.6c0.4-0.8,0.7-1.7,1.1-2.4v11.4h2.8v-15.3h-3.8c-0.4,0.7-0.7,1.5-1.1,2.3
		c-0.4,0.8-0.7,1.6-1.1,2.5c-0.4,0.8-0.7,1.7-1.1,2.5C54.1,150.1,53.8,150.9,53.5,151.7L53.5,151.7z M70.7,157.2v-12.8h5.2v-2.5
		H62.6v2.5h5.2v12.8H70.7L70.7,157.2z M77,141.9v15.3h11.1v-2.5h-8.2v-4.3h5.9V148h-5.9v-3.5h8.2v-2.5H77L77,141.9z M91.5,141.9
		c0.6,0.7,1.2,1.5,1.8,2.4c0.6,0.8,1.3,1.7,2,2.7c0.6-0.9,1.3-1.8,1.9-2.6c0.6-0.9,1.1-1.7,1.7-2.4h3.6c-0.5,0.8-1.1,1.6-1.6,2.4
		c-0.6,0.8-1.2,1.7-1.8,2.5c-0.6,0.9-1.2,1.7-1.9,2.6c0.7,0.9,1.4,1.9,2,2.8c0.7,0.9,1.3,1.8,1.9,2.7c0.6,0.8,1.1,1.6,1.6,2.3h-3.6
		c-0.5-0.8-1.1-1.6-1.8-2.5c-0.6-0.9-1.3-1.8-2-2.8c-0.7,0.9-1.4,1.9-2.1,2.7c-0.7,0.9-1.3,1.7-2,2.5h-3.6c0.4-0.5,0.8-1,1.3-1.6
		c0.5-0.6,0.9-1.2,1.4-1.9c0.5-0.7,1-1.4,1.5-2.1c0.5-0.7,1.1-1.4,1.6-2.2c-0.7-0.9-1.4-1.9-2.1-2.8c-0.7-0.9-1.3-1.8-2-2.6
		c-0.6-0.8-1.2-1.6-1.7-2.2H91.5L91.5,141.9z M106.6,150.4h6.5v6.8h2.9v-15.3h-2.9v5.8h-6.5v-5.8h-2.9v15.3h2.9V150.4L106.6,150.4z
		 M125.5,141.5c-1,0-1.8,0.1-2.6,0.2c-0.8,0.2-1.5,0.4-2,0.8c-0.6,0.4-1.1,0.8-1.5,1.4c-0.4,0.6-0.7,1.4-0.9,2.3
		c-0.2,0.9-0.3,2-0.3,3.2c0,1.3,0.1,2.4,0.3,3.3c0.2,0.9,0.5,1.7,0.9,2.3c0.4,0.6,0.9,1.1,1.5,1.5c0.6,0.4,1.3,0.6,2,0.8
		c0.8,0.2,1.7,0.2,2.6,0.2c1,0,1.8-0.1,2.6-0.2c0.8-0.2,1.5-0.4,2-0.8c0.6-0.4,1.1-0.9,1.5-1.5c0.4-0.6,0.7-1.4,0.9-2.3
		c0.2-0.9,0.3-2,0.3-3.3c0-1.2-0.1-2.3-0.3-3.2c-0.2-0.9-0.5-1.7-0.9-2.3c-0.4-0.6-0.9-1.1-1.5-1.4c-0.6-0.4-1.3-0.6-2-0.8
		C127.4,141.6,126.5,141.5,125.5,141.5L125.5,141.5z M125.5,154.9c-0.7,0-1.2,0-1.7-0.1c-0.5-0.1-0.9-0.2-1.2-0.5
		c-0.3-0.2-0.6-0.5-0.8-0.9c-0.2-0.4-0.3-0.9-0.4-1.6c-0.1-0.6-0.1-1.4-0.1-2.3c0-0.9,0-1.7,0.1-2.3c0.1-0.6,0.2-1.1,0.4-1.5
		c0.2-0.4,0.4-0.7,0.8-0.9c0.3-0.2,0.7-0.4,1.2-0.4c0.5-0.1,1.1-0.1,1.7-0.1c0.7,0,1.2,0,1.7,0.1c0.5,0.1,0.9,0.2,1.2,0.4
		c0.3,0.2,0.6,0.5,0.8,0.9c0.2,0.4,0.3,0.9,0.4,1.5c0.1,0.6,0.1,1.4,0.1,2.3c0,0.9,0,1.7-0.1,2.3c-0.1,0.6-0.2,1.2-0.4,1.6
		c-0.2,0.4-0.4,0.7-0.8,0.9c-0.3,0.2-0.7,0.4-1.2,0.5C126.8,154.9,126.2,154.9,125.5,154.9L125.5,154.9z M144.3,144.4v12.8h2.9
		v-15.3h-10.3c-0.1,1.9-0.3,3.7-0.6,5.4c-0.3,1.8-0.7,3.5-1.1,5.1c-0.4,1.6-0.9,3.2-1.4,4.7h3c0.4-1.1,0.7-2.1,1-3.2
		c0.3-1.1,0.6-2.2,0.8-3.3c0.2-1.1,0.4-2.2,0.6-3.2c0.2-1.1,0.3-2.1,0.3-3.1H144.3L144.3,144.4z M156.7,141.5c-1,0-1.8,0.1-2.6,0.2
		c-0.8,0.2-1.5,0.4-2,0.8c-0.6,0.4-1.1,0.8-1.5,1.4c-0.4,0.6-0.7,1.4-0.9,2.3c-0.2,0.9-0.3,2-0.3,3.2c0,1.3,0.1,2.4,0.3,3.3
		c0.2,0.9,0.5,1.7,0.9,2.3c0.4,0.6,0.9,1.1,1.5,1.5c0.6,0.4,1.3,0.6,2,0.8c0.8,0.2,1.7,0.2,2.6,0.2c1,0,1.8-0.1,2.6-0.2
		c0.8-0.2,1.5-0.4,2-0.8c0.6-0.4,1.1-0.9,1.5-1.5c0.4-0.6,0.7-1.4,0.9-2.3c0.2-0.9,0.3-2,0.3-3.3c0-1.2-0.1-2.3-0.3-3.2
		c-0.2-0.9-0.5-1.7-0.9-2.3c-0.4-0.6-0.9-1.1-1.5-1.4c-0.6-0.4-1.3-0.6-2-0.8C158.5,141.6,157.6,141.5,156.7,141.5L156.7,141.5z
		 M156.7,154.9c-0.7,0-1.2,0-1.7-0.1c-0.5-0.1-0.9-0.2-1.2-0.5c-0.3-0.2-0.6-0.5-0.8-0.9c-0.2-0.4-0.3-0.9-0.4-1.6
		c-0.1-0.6-0.1-1.4-0.1-2.3c0-0.9,0-1.7,0.1-2.3c0.1-0.6,0.2-1.1,0.4-1.5c0.2-0.4,0.4-0.7,0.8-0.9c0.3-0.2,0.7-0.4,1.2-0.4
		c0.5-0.1,1.1-0.1,1.7-0.1c0.7,0,1.2,0,1.7,0.1c0.5,0.1,0.9,0.2,1.2,0.4c0.3,0.2,0.6,0.5,0.8,0.9c0.2,0.4,0.3,0.9,0.4,1.5
		c0.1,0.6,0.1,1.4,0.1,2.3c0,0.9,0,1.7-0.1,2.3c-0.1,0.6-0.2,1.2-0.4,1.6c-0.2,0.4-0.4,0.7-0.8,0.9c-0.3,0.2-0.7,0.4-1.2,0.5
		C157.9,154.9,157.3,154.9,156.7,154.9L156.7,154.9z M169.1,157.2v-12.8h7.4v-2.5h-10.3v15.3H169.1L169.1,157.2z M190.4,141.9h-3.5
		c-1,1.9-2.1,3.8-3.3,5.8c-1.1,1.9-2.3,3.9-3.5,5.8v-11.5h-2.9v15.3h3.8c0.7-1.2,1.5-2.4,2.2-3.6c0.7-1.2,1.5-2.5,2.2-3.7
		c0.7-1.2,1.4-2.5,2.1-3.7v11.1h2.8V141.9L190.4,141.9z M206.5,141.9H203c-1,1.9-2.1,3.8-3.3,5.8c-1.1,1.9-2.3,3.9-3.5,5.8v-11.5
		h-2.9v15.3h3.8c0.7-1.2,1.5-2.4,2.2-3.6c0.7-1.2,1.5-2.5,2.2-3.7c0.7-1.2,1.4-2.5,2.1-3.7v11.1h2.8V141.9z"/>
	<linearGradient id="SVGID_1_" gradientUnits="userSpaceOnUse" x1="102.293" y1="0" x2="102.293" y2="106.6128">
		<stop  offset="0" style="stop-color:#32338E"/>
		<stop  offset="1" style="stop-color:#2898D8"/>
	</linearGradient>
	<path class="st1" d="M102.3,0c29.4,0,53.3,23.9,53.3,53.3c0,1.6-0.1,3.2-0.2,4.8h-23.5l3.5-4.8h11.4c0-24.6-19.9-44.5-44.5-44.5
		c-24.6,0-44.5,19.9-44.5,44.5h11.4l3.5,4.8H49.2c-0.1-1.6-0.2-3.2-0.2-4.8C49,23.9,72.9,0,102.3,0L102.3,0z M154.7,63.1
		c-0.3,1.7-0.7,3.4-1.2,5.1h-29.2l3.8-5.1H154.7L154.7,63.1z M80.3,68.2H51.1c-0.5-1.7-0.9-3.4-1.2-5.1h26.6L80.3,68.2L80.3,68.2z
		 M151.7,73.3c-0.7,1.7-1.5,3.4-2.4,5.1h-32.6l2.1-2.8l1.7-2.3H151.7L151.7,73.3z M87.8,78.4H55.2c-0.9-1.6-1.7-3.3-2.4-5.1H84
		l1.7,2.3L87.8,78.4L87.8,78.4z M146.3,83.4c-1.2,1.8-2.5,3.5-4,5.1h-33.1l3.8-5.1H146.3L146.3,83.4z M95.4,88.5H62.3
		c-1.4-1.6-2.7-3.3-4-5.1h33.3L95.4,88.5L95.4,88.5z M137.2,93.6c-9.4,8.1-21.6,13-34.9,13c-13.4,0-25.6-4.9-34.9-13h31.8l3.2,4.2
		l3.2-4.2H137.2z"/>
	<radialGradient id="SVGID_2_" cx="73.1402" cy="12.3487" r="63.0843" gradientUnits="userSpaceOnUse">
		<stop  offset="0" style="stop-color:#2898D8"/>
		<stop  offset="1" style="stop-color:#32338E"/>
	</radialGradient>
	<polygon class="st2" points="102.3,8.8 118.9,31 135.4,53.3 129.8,53.3 116,34.9 102.3,16.4 88.6,34.9 74.8,53.3 69.2,53.3
		85.7,31 	"/>
	<radialGradient id="SVGID_3_" cx="79.4183" cy="26.5452" r="48.9428" gradientUnits="userSpaceOnUse">
		<stop  offset="0" style="stop-color:#2898D8"/>
		<stop  offset="1" style="stop-color:#32338E"/>
	</radialGradient>
	<path class="st3" d="M102.1,23.4c8.6,11.6,17.5,23,26.2,34.6h-52C84.9,46.5,93.5,35,102.1,23.4z"/>
	<linearGradient id="SVGID_4_" gradientUnits="userSpaceOnUse" x1="102.2925" y1="101.0425" x2="102.2925" y2="5.5723">
		<stop  offset="0" style="stop-color:#32338E"/>
		<stop  offset="1" style="stop-color:#2898D8"/>
	</linearGradient>
	<path class="st4" d="M102.3,5.6c26.4,0,47.7,21.4,47.7,47.7c0,1.6-0.1,3.2-0.2,4.8h-3.2c0.2-1.6,0.3-3.2,0.3-4.8
		c0-24.6-19.9-44.5-44.5-44.5c-24.6,0-44.5,19.9-44.5,44.5c0,1.6,0.1,3.2,0.3,4.8h-3.2c-0.2-1.6-0.2-3.2-0.2-4.8
		C54.6,26.9,75.9,5.6,102.3,5.6L102.3,5.6z M149,63.1c-0.4,1.7-0.8,3.4-1.4,5.1h-3.4c0.6-1.6,1.1-3.3,1.5-5.1H149L149,63.1z
		 M145.6,73.3c-0.8,1.8-1.7,3.4-2.7,5.1h-3.8c1.1-1.6,2.1-3.3,3-5.1H145.6L145.6,73.3z M139.3,83.4c-1.5,1.8-3.1,3.5-4.8,5.1h-5
		c2-1.5,3.8-3.2,5.5-5.1H139.3L139.3,83.4z M127.9,93.6c-7.4,4.7-16.2,7.5-25.6,7.5c-9.4,0-18.2-2.7-25.6-7.5h6.6
		c5.8,2.7,12.2,4.2,19,4.2c6.8,0,13.2-1.5,19-4.2H127.9L127.9,93.6z M70.1,88.5c-1.7-1.6-3.3-3.3-4.8-5.1h4.3
		c1.7,1.8,3.5,3.5,5.5,5.1H70.1L70.1,88.5z M61.7,78.4c-1-1.6-1.9-3.3-2.7-5.1h3.6c0.9,1.8,1.9,3.5,3,5.1H61.7L61.7,78.4z
		 M56.9,68.2c-0.5-1.7-1-3.3-1.4-5.1h3.3c0.4,1.7,0.9,3.4,1.5,5.1H56.9z"/>
</g>
</svg>
